G04 #@! TF.FileFunction,Copper,L2,Bot,Signal*
%FSLAX46Y46*%
G04 Gerber Fmt 4.6, Leading zero omitted, Abs format (unit mm)*
G04 Created by KiCad (PCBNEW 4.0.6) date 03/31/18 20:42:20*
%MOMM*%
%LPD*%
G01*
G04 APERTURE LIST*
%ADD10C,0.100000*%
%ADD11C,6.400000*%
%ADD12O,1.500000X1.500000*%
%ADD13C,2.800000*%
%ADD14C,3.800000*%
%ADD15C,1.300000*%
%ADD16R,1.700000X1.700000*%
%ADD17O,1.700000X1.700000*%
%ADD18C,0.600000*%
%ADD19C,0.250000*%
%ADD20C,0.600000*%
%ADD21C,0.400000*%
G04 APERTURE END LIST*
D10*
D11*
X116000000Y-96000000D03*
X84000000Y-96000000D03*
X84000000Y-24000000D03*
D12*
X92700000Y-63200000D03*
X106800000Y-63200000D03*
D13*
X100000000Y-72200000D03*
D14*
X100000000Y-80650000D03*
D15*
X93020000Y-90700000D03*
X94820000Y-90450000D03*
X96620000Y-75700000D03*
X106980000Y-90700000D03*
X105180000Y-90450000D03*
X106980000Y-88650000D03*
X106980000Y-86600000D03*
X106980000Y-84550000D03*
X106980000Y-82500000D03*
X106980000Y-80400000D03*
X106980000Y-78300000D03*
X106980000Y-76100000D03*
X106980000Y-73820000D03*
X106980000Y-71540000D03*
X106980000Y-69260000D03*
X105180000Y-88400000D03*
X105180000Y-86350000D03*
X105180000Y-84300000D03*
X105180000Y-82250000D03*
X105180000Y-80200000D03*
X105180000Y-78100000D03*
X105180000Y-75900000D03*
X105180000Y-73620000D03*
X105180000Y-71340000D03*
X105180000Y-69060000D03*
X103380000Y-75700000D03*
X103380000Y-73420000D03*
X103380000Y-71140000D03*
X103380000Y-68860000D03*
X96620000Y-73620000D03*
X96620000Y-71340000D03*
X96620000Y-69060000D03*
X93020000Y-88650000D03*
X93020000Y-86600000D03*
X93020000Y-84550000D03*
X93020000Y-82500000D03*
X93020000Y-80400000D03*
X93020000Y-78300000D03*
X93020000Y-76100000D03*
X93020000Y-73820000D03*
X93020000Y-71540000D03*
X93020000Y-69260000D03*
X94820000Y-88400000D03*
X94820000Y-86350000D03*
X94820000Y-84300000D03*
X94820000Y-82250000D03*
X94820000Y-80200000D03*
X94820000Y-78100000D03*
X94820000Y-75900000D03*
X94820000Y-73620000D03*
X94820000Y-71340000D03*
X94820000Y-69060000D03*
D13*
X100000000Y-85700000D03*
D12*
X93900000Y-93600000D03*
D16*
X92540000Y-33000000D03*
D17*
X90000000Y-33000000D03*
X92540000Y-35540000D03*
X90000000Y-35540000D03*
X92540000Y-38080000D03*
X90000000Y-38080000D03*
X92540000Y-40620000D03*
X90000000Y-40620000D03*
X92540000Y-43160000D03*
X90000000Y-43160000D03*
X92540000Y-45700000D03*
X90000000Y-45700000D03*
X92540000Y-48240000D03*
X90000000Y-48240000D03*
X92540000Y-50780000D03*
X90000000Y-50780000D03*
X92540000Y-53320000D03*
X90000000Y-53320000D03*
X92540000Y-55860000D03*
X90000000Y-55860000D03*
D16*
X110000000Y-33000000D03*
D17*
X107460000Y-33000000D03*
X110000000Y-35540000D03*
X107460000Y-35540000D03*
X110000000Y-38080000D03*
X107460000Y-38080000D03*
X110000000Y-40620000D03*
X107460000Y-40620000D03*
X110000000Y-43160000D03*
X107460000Y-43160000D03*
X110000000Y-45700000D03*
X107460000Y-45700000D03*
X110000000Y-48240000D03*
X107460000Y-48240000D03*
X110000000Y-50780000D03*
X107460000Y-50780000D03*
X110000000Y-53320000D03*
X107460000Y-53320000D03*
X110000000Y-55860000D03*
X107460000Y-55860000D03*
D11*
X116000000Y-24000000D03*
D18*
X90900000Y-89800000D03*
X94750000Y-91250000D03*
X96374990Y-48250000D03*
X96500000Y-82750000D03*
X105750000Y-72000000D03*
X106500000Y-83000000D03*
X103000000Y-76250000D03*
X90000000Y-73500000D03*
X92500000Y-73250000D03*
X109625010Y-88750000D03*
X106500000Y-89250000D03*
X111250000Y-83750000D03*
X107500000Y-83750000D03*
X112000000Y-79750000D03*
X107750000Y-80000000D03*
X113999998Y-78750000D03*
X108000000Y-78750000D03*
X113000004Y-76250000D03*
X107750000Y-76250000D03*
X112750000Y-72999994D03*
X108000000Y-73250000D03*
X109625010Y-87750000D03*
X105750000Y-87750000D03*
X109625010Y-85750000D03*
X105750000Y-85750000D03*
X111250000Y-85000000D03*
X105500000Y-84750000D03*
X109250000Y-81750000D03*
X104500000Y-81750000D03*
X112000000Y-80749994D03*
X105500000Y-80750000D03*
X114000006Y-77750000D03*
X105750000Y-77500000D03*
X110500000Y-74750000D03*
X105500000Y-75250000D03*
X102750000Y-63250000D03*
X104750000Y-73000000D03*
X104250000Y-66250000D03*
X103000000Y-72750000D03*
X110025032Y-70500000D03*
X104000000Y-70500000D03*
X95624990Y-65500000D03*
X97250000Y-72750000D03*
X97250000Y-70500000D03*
X97000000Y-66750000D03*
X88816946Y-82183048D03*
X92000000Y-82250000D03*
X91750000Y-80000006D03*
X92500000Y-80000000D03*
X88750000Y-78000000D03*
X92250000Y-78000000D03*
X88000000Y-75750000D03*
X92500000Y-75750000D03*
X87400000Y-71200000D03*
X92250000Y-71000000D03*
X104475000Y-45700002D03*
X93000000Y-68500000D03*
X98250000Y-63750000D03*
X94500000Y-89000000D03*
X91250004Y-88750000D03*
X89000000Y-85000012D03*
X95250000Y-85000000D03*
X88750000Y-80500000D03*
X95500000Y-80750000D03*
X83199994Y-77900000D03*
X95750000Y-78750000D03*
X87000000Y-77250000D03*
X94500000Y-76500000D03*
X95250000Y-73000000D03*
X95500000Y-66750000D03*
D19*
X86650011Y-81650011D02*
X88250000Y-83250000D01*
X92100762Y-90700000D02*
X93020000Y-90700000D01*
X89950000Y-90700000D02*
X92100762Y-90700000D01*
X88250000Y-83250000D02*
X88250000Y-89000000D01*
X83800022Y-76663611D02*
X86650011Y-79513600D01*
X86650011Y-79513600D02*
X86650011Y-81650011D01*
X88250000Y-89000000D02*
X89950000Y-90700000D01*
X90000000Y-35540000D02*
X83800022Y-41739978D01*
X83800022Y-41739978D02*
X83800022Y-76663611D01*
X90600001Y-89500001D02*
X90900000Y-89800000D01*
X88350002Y-70824998D02*
X88350002Y-74350002D01*
X89700001Y-88600001D02*
X90600001Y-89500001D01*
X87400110Y-69875106D02*
X88350002Y-70824998D01*
X87400110Y-52177809D02*
X87400110Y-69875106D01*
X88797919Y-50780000D02*
X87400110Y-52177809D01*
X89700001Y-75700001D02*
X89700001Y-88600001D01*
X90000000Y-50780000D02*
X88797919Y-50780000D01*
X88350002Y-74350002D02*
X89700001Y-75700001D01*
X94750000Y-91250000D02*
X94750000Y-90520000D01*
X94750000Y-90520000D02*
X94820000Y-90450000D01*
X97124990Y-49000000D02*
X96374990Y-48250000D01*
X96620000Y-75700000D02*
X98000000Y-74320000D01*
X97124990Y-65874990D02*
X98000000Y-66750000D01*
X97124990Y-49000000D02*
X97124990Y-65874990D01*
X98000000Y-74320000D02*
X98000000Y-66750000D01*
D20*
X94820000Y-71340000D02*
X94820000Y-71640000D01*
X94820000Y-71640000D02*
X93020000Y-73440000D01*
X93020000Y-73440000D02*
X93020000Y-73820000D01*
X105750000Y-72000000D02*
X105750000Y-71910000D01*
X105750000Y-71910000D02*
X105180000Y-71340000D01*
D19*
X103000000Y-76250000D02*
X103000000Y-76080000D01*
X103000000Y-76080000D02*
X103380000Y-75700000D01*
D20*
X106980000Y-82520000D02*
X106500000Y-83000000D01*
D19*
X106980000Y-82500000D02*
X106980000Y-82520000D01*
D21*
X106980000Y-82500000D02*
X107832533Y-82500000D01*
X108250000Y-82917467D02*
X108250000Y-86750000D01*
X107832533Y-82500000D02*
X108250000Y-82917467D01*
D20*
X107460000Y-55860000D02*
X107460000Y-60460000D01*
X107460000Y-60460000D02*
X108750000Y-61750000D01*
X108750000Y-64250000D02*
X106980000Y-66020000D01*
X108750000Y-61750000D02*
X108750000Y-64250000D01*
X106980000Y-66020000D02*
X106980000Y-68340762D01*
X106980000Y-68340762D02*
X106980000Y-69260000D01*
X94820000Y-86350000D02*
X95739238Y-86350000D01*
X95739238Y-86350000D02*
X95750000Y-86339238D01*
X95750000Y-86339238D02*
X96160762Y-86339238D01*
X96160762Y-86339238D02*
X96500000Y-86000000D01*
X96500000Y-86000000D02*
X96500000Y-82750000D01*
X96500000Y-82750000D02*
X96000000Y-82250000D01*
X96000000Y-82250000D02*
X94820000Y-82250000D01*
X90000000Y-55860000D02*
X90000000Y-73500000D01*
X92500000Y-73250000D02*
X92500000Y-73300000D01*
X92500000Y-73300000D02*
X93020000Y-73820000D01*
X106980000Y-69260000D02*
X106980000Y-71540000D01*
X105180000Y-71340000D02*
X106780000Y-71340000D01*
X106780000Y-71340000D02*
X106980000Y-71540000D01*
D21*
X108250000Y-86750000D02*
X107130000Y-86750000D01*
X107130000Y-86750000D02*
X106980000Y-86600000D01*
X106980000Y-90700000D02*
X108250000Y-89430000D01*
X108250000Y-89430000D02*
X108250000Y-86750000D01*
D20*
X93020000Y-86600000D02*
X93020000Y-88650000D01*
X94820000Y-86350000D02*
X93270000Y-86350000D01*
X93270000Y-86350000D02*
X93020000Y-86600000D01*
X96620000Y-69060000D02*
X94820000Y-70860000D01*
X94820000Y-70860000D02*
X94820000Y-71340000D01*
D19*
X110000000Y-53320000D02*
X108725000Y-54595000D01*
X105000000Y-90630000D02*
X105180000Y-90450000D01*
X105000000Y-91500000D02*
X105000000Y-90630000D01*
X108725000Y-54595000D02*
X108725000Y-56975000D01*
X108500000Y-71447826D02*
X108724976Y-71672802D01*
X108725000Y-56975000D02*
X109435999Y-57685999D01*
X109435999Y-57685999D02*
X109435999Y-68616175D01*
X108724976Y-80850022D02*
X108500000Y-81074998D01*
X109435999Y-68616175D02*
X108500000Y-69552174D01*
X108500000Y-82250000D02*
X108775010Y-82525010D01*
X108500000Y-69552174D02*
X108500000Y-71447826D01*
X108724976Y-71672802D02*
X108724976Y-80850022D01*
X108775010Y-82525010D02*
X108775010Y-90974990D01*
X108500000Y-81074998D02*
X108500000Y-82250000D01*
X108775010Y-90974990D02*
X107750000Y-92000000D01*
X107750000Y-92000000D02*
X105500000Y-92000000D01*
X105500000Y-92000000D02*
X105000000Y-91500000D01*
X86200000Y-81950000D02*
X87750000Y-83500000D01*
X106250000Y-96000000D02*
X109625010Y-92624990D01*
X87750000Y-91750000D02*
X92000000Y-96000000D01*
X87750000Y-83500000D02*
X87750000Y-91750000D01*
X90000000Y-33000000D02*
X83350011Y-39649989D01*
X83350011Y-39649989D02*
X83350011Y-76850011D01*
X83350011Y-76850011D02*
X86200000Y-79700000D01*
X109625010Y-92624990D02*
X109625010Y-89174264D01*
X92000000Y-96000000D02*
X106250000Y-96000000D01*
X109625010Y-89174264D02*
X109625010Y-88750000D01*
X86200000Y-79700000D02*
X86200000Y-81950000D01*
X106500000Y-89250000D02*
X106500000Y-89130000D01*
X106500000Y-89130000D02*
X106980000Y-88650000D01*
X113800044Y-70138543D02*
X111674988Y-72263599D01*
X110799989Y-76002187D02*
X110799989Y-83299989D01*
X113800044Y-46960044D02*
X113800044Y-70138543D01*
X110799989Y-83299989D02*
X110950001Y-83450001D01*
X111674988Y-72263599D02*
X111674988Y-75127188D01*
X110950001Y-83450001D02*
X111250000Y-83750000D01*
X111674988Y-75127188D02*
X110799989Y-76002187D01*
X110000000Y-43160000D02*
X113800044Y-46960044D01*
X107500000Y-83750000D02*
X107500000Y-84030000D01*
X107500000Y-84030000D02*
X106980000Y-84550000D01*
X110000000Y-38080000D02*
X111980000Y-38080000D01*
X111980000Y-38080000D02*
X115299999Y-41399999D01*
X112000000Y-76074998D02*
X112000000Y-79325736D01*
X115299999Y-41399999D02*
X115299999Y-72774999D01*
X115299999Y-72774999D02*
X112000000Y-76074998D01*
X112000000Y-79325736D02*
X112000000Y-79750000D01*
X107750000Y-80000000D02*
X107380000Y-80000000D01*
X107380000Y-80000000D02*
X106980000Y-80400000D01*
X107460000Y-33000000D02*
X107460000Y-32240000D01*
X107460000Y-32240000D02*
X108350000Y-31350000D01*
X112400000Y-32400000D02*
X112400000Y-35890768D01*
X108350000Y-31350000D02*
X111350000Y-31350000D01*
X117250000Y-40740768D02*
X117250000Y-75499998D01*
X117250000Y-75499998D02*
X114299997Y-78450001D01*
X111350000Y-31350000D02*
X112400000Y-32400000D01*
X114299997Y-78450001D02*
X113999998Y-78750000D01*
X112400000Y-35890768D02*
X117250000Y-40740768D01*
X108000000Y-78750000D02*
X107430000Y-78750000D01*
X107430000Y-78750000D02*
X106980000Y-78300000D01*
X115799999Y-73450005D02*
X113300003Y-75950001D01*
X113300003Y-75950001D02*
X113000004Y-76250000D01*
X115799999Y-41199999D02*
X115799999Y-73450005D01*
X107460000Y-35540000D02*
X108720000Y-36800000D01*
X108720000Y-36800000D02*
X111400000Y-36800000D01*
X111400000Y-36800000D02*
X115799999Y-41199999D01*
X107750000Y-76250000D02*
X107130000Y-76250000D01*
X107130000Y-76250000D02*
X106980000Y-76100000D01*
X107460000Y-38080000D02*
X108730000Y-39350000D01*
X108730000Y-39350000D02*
X112550000Y-39350000D01*
X112550000Y-39350000D02*
X114799999Y-41599999D01*
X114799999Y-41599999D02*
X114799999Y-70949995D01*
X114799999Y-70949995D02*
X113049999Y-72699995D01*
X113049999Y-72699995D02*
X112750000Y-72999994D01*
X108000000Y-73250000D02*
X107550000Y-73250000D01*
X107550000Y-73250000D02*
X106980000Y-73820000D01*
X110000000Y-45700000D02*
X113350033Y-49050033D01*
X111224977Y-72077199D02*
X111224977Y-74922801D01*
X113350033Y-69952143D02*
X111224977Y-72077199D01*
X113350033Y-49050033D02*
X113350033Y-69952143D01*
X109925009Y-87450001D02*
X109625010Y-87750000D01*
X111224977Y-74922801D02*
X110349978Y-75797800D01*
X110349978Y-75797800D02*
X110349978Y-87025032D01*
X110349978Y-87025032D02*
X109925009Y-87450001D01*
X105750000Y-87750000D02*
X105750000Y-87830000D01*
X105750000Y-87830000D02*
X105180000Y-88400000D01*
X107460000Y-53320000D02*
X108730000Y-52050000D01*
X112000000Y-67324995D02*
X109400022Y-69924973D01*
X109400022Y-71075026D02*
X109750000Y-71425004D01*
X108730000Y-52050000D02*
X111300000Y-52050000D01*
X109625010Y-85325736D02*
X109625010Y-85750000D01*
X111300000Y-52050000D02*
X112000000Y-52750000D01*
X112000000Y-52750000D02*
X112000000Y-67324995D01*
X109400022Y-69924973D02*
X109400022Y-71075026D01*
X109875001Y-85075745D02*
X109625010Y-85325736D01*
X109750000Y-71425004D02*
X109750000Y-80500000D01*
X109750000Y-80500000D02*
X109875001Y-80625001D01*
X109875001Y-80625001D02*
X109875001Y-85075745D01*
X105750000Y-85750000D02*
X105750000Y-85780000D01*
X105750000Y-85780000D02*
X105180000Y-86350000D01*
X110000000Y-40620000D02*
X114299999Y-44919999D01*
X112000000Y-83000000D02*
X112000000Y-84250000D01*
X114299999Y-44919999D02*
X114299999Y-70274999D01*
X112000000Y-84250000D02*
X111549999Y-84700001D01*
X114299999Y-70274999D02*
X112124999Y-72449999D01*
X112124999Y-72449999D02*
X112124999Y-75313588D01*
X112124999Y-75313588D02*
X111250000Y-76188587D01*
X111250000Y-76188587D02*
X111250000Y-82250000D01*
X111250000Y-82250000D02*
X112000000Y-83000000D01*
X111549999Y-84700001D02*
X111250000Y-85000000D01*
X105500000Y-84750000D02*
X105500000Y-84620000D01*
X105500000Y-84620000D02*
X105180000Y-84300000D01*
X108950011Y-69738573D02*
X108950011Y-71261426D01*
X108950011Y-71261426D02*
X109250000Y-71561415D01*
X109250000Y-71561415D02*
X109250000Y-81325736D01*
X110000000Y-68688584D02*
X108950011Y-69738573D01*
X110000000Y-55860000D02*
X110000000Y-68688584D01*
X109250000Y-81325736D02*
X109250000Y-81750000D01*
X104500000Y-81750000D02*
X104680000Y-81750000D01*
X104680000Y-81750000D02*
X105180000Y-82250000D01*
X110776411Y-35540000D02*
X116349978Y-41113567D01*
X113000000Y-79749994D02*
X112299999Y-80449995D01*
X112299999Y-80449995D02*
X112000000Y-80749994D01*
X113000000Y-77574984D02*
X113000000Y-79749994D01*
X116349978Y-74225006D02*
X113000000Y-77574984D01*
X116349978Y-41113567D02*
X116349978Y-74225006D01*
X110000000Y-35540000D02*
X110776411Y-35540000D01*
X105500000Y-80750000D02*
X105500000Y-80520000D01*
X105500000Y-80520000D02*
X105180000Y-80200000D01*
X116799989Y-74950017D02*
X114300005Y-77450001D01*
X116799989Y-40927167D02*
X116799989Y-74950017D01*
X110000000Y-33000000D02*
X111100000Y-33000000D01*
X114300005Y-77450001D02*
X114000006Y-77750000D01*
X111100000Y-33000000D02*
X111949989Y-33849989D01*
X111949989Y-33849989D02*
X111949989Y-36077167D01*
X111949989Y-36077167D02*
X116799989Y-40927167D01*
X105750000Y-77500000D02*
X105750000Y-77530000D01*
X105750000Y-77530000D02*
X105180000Y-78100000D01*
X110500000Y-74325736D02*
X110500000Y-74750000D01*
X112900022Y-51140022D02*
X112900022Y-69765743D01*
X110500000Y-72165765D02*
X110500000Y-74325736D01*
X112900022Y-69765743D02*
X110500000Y-72165765D01*
X110000000Y-48240000D02*
X112900022Y-51140022D01*
X105500000Y-75250000D02*
X105500000Y-75580000D01*
X105500000Y-75580000D02*
X105180000Y-75900000D01*
X102750000Y-62825736D02*
X102750000Y-63250000D01*
X102750000Y-51400000D02*
X102750000Y-62825736D01*
X105299989Y-48850011D02*
X102750000Y-51400000D01*
X105299989Y-42780011D02*
X105299989Y-48850011D01*
X107460000Y-40620000D02*
X105299989Y-42780011D01*
X104750000Y-73000000D02*
X104750000Y-73190000D01*
X104750000Y-73190000D02*
X105180000Y-73620000D01*
X107460000Y-50780000D02*
X106257919Y-50780000D01*
X106257919Y-50780000D02*
X105180000Y-51857919D01*
X105180000Y-51857919D02*
X105180000Y-68140762D01*
X105180000Y-68140762D02*
X105180000Y-69060000D01*
X104250000Y-51450000D02*
X104250000Y-65825736D01*
X107460000Y-48240000D02*
X104250000Y-51450000D01*
X104250000Y-65825736D02*
X104250000Y-66250000D01*
X103000000Y-72750000D02*
X103000000Y-73040000D01*
X103000000Y-73040000D02*
X103380000Y-73420000D01*
X110325031Y-70200001D02*
X110025032Y-70500000D01*
X112450011Y-52027930D02*
X112450011Y-68075021D01*
X111202081Y-50780000D02*
X112450011Y-52027930D01*
X110000000Y-50780000D02*
X111202081Y-50780000D01*
X112450011Y-68075021D02*
X110325031Y-70200001D01*
X104000000Y-70500000D02*
X104000000Y-70520000D01*
X104000000Y-70520000D02*
X103380000Y-71140000D01*
X107460000Y-43160000D02*
X105750000Y-44870000D01*
X105750000Y-44870000D02*
X105750000Y-49036410D01*
X105750000Y-49036410D02*
X103380000Y-51406410D01*
X103380000Y-51406410D02*
X103380000Y-67940762D01*
X103380000Y-67940762D02*
X103380000Y-68860000D01*
X94999989Y-51011400D02*
X95624990Y-51636401D01*
X95624990Y-65075736D02*
X95624990Y-65500000D01*
X95624990Y-51636401D02*
X95624990Y-65075736D01*
X94999989Y-40539989D02*
X94999989Y-51011400D01*
X92540000Y-38080000D02*
X94999989Y-40539989D01*
X97250000Y-72750000D02*
X97250000Y-72990000D01*
X97250000Y-72990000D02*
X96620000Y-73620000D01*
X92540000Y-35540000D02*
X95450000Y-38450000D01*
X95450000Y-38450000D02*
X95450000Y-50825000D01*
X95450000Y-50825000D02*
X96250000Y-51625000D01*
X96250000Y-51625000D02*
X96250000Y-66000000D01*
X96250000Y-66000000D02*
X97000000Y-66750000D01*
X97250000Y-70500000D02*
X97250000Y-70710000D01*
X97250000Y-70710000D02*
X96620000Y-71340000D01*
X89250024Y-70452198D02*
X88300132Y-69502306D01*
X89150001Y-54169999D02*
X90000000Y-53320000D01*
X88300132Y-55019868D02*
X89150001Y-54169999D01*
X88300132Y-69502306D02*
X88300132Y-55019868D01*
X93020000Y-84550000D02*
X90750000Y-82280000D01*
X90750000Y-75477179D02*
X89250024Y-73977203D01*
X90750000Y-82280000D02*
X90750000Y-75477179D01*
X89250024Y-73977203D02*
X89250024Y-70452198D01*
X88516947Y-81883049D02*
X88816946Y-82183048D01*
X84700044Y-76290811D02*
X87550033Y-79140800D01*
X84700044Y-44717875D02*
X84700044Y-76290811D01*
X88797919Y-40620000D02*
X84700044Y-44717875D01*
X87550033Y-79140800D02*
X87550033Y-80916135D01*
X87550033Y-80916135D02*
X88516947Y-81883049D01*
X90000000Y-40620000D02*
X88797919Y-40620000D01*
X92000000Y-82250000D02*
X92770000Y-82250000D01*
X92770000Y-82250000D02*
X93020000Y-82500000D01*
X92540000Y-55860000D02*
X90750000Y-57650000D01*
X90750000Y-73275000D02*
X91450001Y-73975001D01*
X90750000Y-57650000D02*
X90750000Y-73275000D01*
X91450001Y-73975001D02*
X91450001Y-79700007D01*
X91450001Y-79700007D02*
X91750000Y-80000006D01*
X92500000Y-80000000D02*
X92620000Y-80000000D01*
X92620000Y-80000000D02*
X93020000Y-80400000D01*
X88750000Y-75500000D02*
X88750000Y-77575736D01*
X86500088Y-73250088D02*
X88750000Y-75500000D01*
X86500088Y-49199912D02*
X86500088Y-73250088D01*
X88750000Y-77575736D02*
X88750000Y-78000000D01*
X90000000Y-45700000D02*
X86500088Y-49199912D01*
X92250000Y-78000000D02*
X92720000Y-78000000D01*
X92720000Y-78000000D02*
X93020000Y-78300000D01*
X86050077Y-73800077D02*
X87700001Y-75450001D01*
X87700001Y-75450001D02*
X88000000Y-75750000D01*
X86050077Y-46449923D02*
X86050077Y-73800077D01*
X88075000Y-44425000D02*
X86050077Y-46449923D01*
X91265000Y-44425000D02*
X88075000Y-44425000D01*
X92540000Y-45700000D02*
X91265000Y-44425000D01*
X92500000Y-75750000D02*
X92670000Y-75750000D01*
X92670000Y-75750000D02*
X93020000Y-76100000D01*
X90000000Y-48240000D02*
X86950099Y-51289901D01*
X86950099Y-70750099D02*
X87100001Y-70900001D01*
X87100001Y-70900001D02*
X87400000Y-71200000D01*
X86950099Y-51289901D02*
X86950099Y-70750099D01*
X92480000Y-71000000D02*
X93020000Y-71540000D01*
X92250000Y-71000000D02*
X92480000Y-71000000D01*
X98250000Y-63750000D02*
X98250000Y-54750000D01*
X104175001Y-46000001D02*
X104475000Y-45700002D01*
X98250000Y-54750000D02*
X104175001Y-48824999D01*
X104175001Y-48824999D02*
X104175001Y-46000001D01*
X93000000Y-68924264D02*
X93000000Y-68500000D01*
X93000000Y-69240000D02*
X93000000Y-68924264D01*
X93020000Y-69260000D02*
X93000000Y-69240000D01*
X92540000Y-53320000D02*
X91245000Y-52025000D01*
X88975000Y-52025000D02*
X87850121Y-53149879D01*
X88800013Y-74163603D02*
X90200001Y-75563591D01*
X88800013Y-70638598D02*
X88800013Y-74163603D01*
X87850121Y-53149879D02*
X87850121Y-69688706D01*
X90200001Y-87699997D02*
X90950005Y-88450001D01*
X90950005Y-88450001D02*
X91250004Y-88750000D01*
X91245000Y-52025000D02*
X88975000Y-52025000D01*
X90200001Y-75563591D02*
X90200001Y-87699997D01*
X87850121Y-69688706D02*
X88800013Y-70638598D01*
X94500000Y-89000000D02*
X94500000Y-88720000D01*
X94500000Y-88720000D02*
X94820000Y-88400000D01*
X84250033Y-76477211D02*
X87100022Y-79327200D01*
X84250033Y-43829967D02*
X84250033Y-76477211D01*
X89000000Y-84575748D02*
X89000000Y-85000012D01*
X87100022Y-81350022D02*
X89000000Y-83250000D01*
X87100022Y-79327200D02*
X87100022Y-81350022D01*
X90000000Y-38080000D02*
X84250033Y-43829967D01*
X89000000Y-83250000D02*
X89000000Y-84575748D01*
X94950001Y-84700001D02*
X95250000Y-85000000D01*
X94820000Y-84570000D02*
X94950001Y-84700001D01*
X94820000Y-84300000D02*
X94820000Y-84570000D01*
X88000044Y-79750044D02*
X88450001Y-80200001D01*
X88450001Y-80200001D02*
X88750000Y-80500000D01*
X88000044Y-77000044D02*
X88000044Y-79750044D01*
X88340000Y-43160000D02*
X85600066Y-45899934D01*
X90000000Y-43160000D02*
X88340000Y-43160000D01*
X85600066Y-74600066D02*
X88000044Y-77000044D01*
X85600066Y-45899934D02*
X85600066Y-74600066D01*
X95500000Y-80750000D02*
X95370000Y-80750000D01*
X95370000Y-80750000D02*
X94820000Y-80200000D01*
X92540000Y-33000000D02*
X92540000Y-31900000D01*
X92540000Y-31900000D02*
X91965000Y-31325000D01*
X91965000Y-31325000D02*
X88575000Y-31325000D01*
X82900000Y-77599996D02*
X82899995Y-77600001D01*
X88575000Y-31325000D02*
X82900000Y-37000000D01*
X82900000Y-37000000D02*
X82900000Y-77599996D01*
X82899995Y-77600001D02*
X83199994Y-77900000D01*
X95750000Y-78750000D02*
X95470000Y-78750000D01*
X95470000Y-78750000D02*
X94820000Y-78100000D01*
X88350000Y-41900000D02*
X85150055Y-45099945D01*
X91280000Y-41900000D02*
X88350000Y-41900000D01*
X92540000Y-43160000D02*
X91280000Y-41900000D01*
X85150055Y-45099945D02*
X85150055Y-75400055D01*
X85150055Y-75400055D02*
X86700001Y-76950001D01*
X86700001Y-76950001D02*
X87000000Y-77250000D01*
X94500000Y-76500000D02*
X94500000Y-76220000D01*
X94500000Y-76220000D02*
X94820000Y-75900000D01*
X94999989Y-66249989D02*
X95200001Y-66450001D01*
X94999989Y-51647811D02*
X94999989Y-66249989D01*
X94500000Y-42580000D02*
X94500000Y-51147822D01*
X92540000Y-40620000D02*
X94500000Y-42580000D01*
X94500000Y-51147822D02*
X94999989Y-51647811D01*
X95200001Y-66450001D02*
X95500000Y-66750000D01*
X95250000Y-73000000D02*
X95250000Y-73190000D01*
X95250000Y-73190000D02*
X94820000Y-73620000D01*
X92540000Y-50780000D02*
X94500000Y-52740000D01*
X94820000Y-68140762D02*
X94820000Y-69060000D01*
X94500000Y-67820762D02*
X94820000Y-68140762D01*
X94500000Y-52740000D02*
X94500000Y-67820762D01*
M02*
