M48
;DRILL file {KiCad 4.0.6} date 03/31/18 20:42:22
;FORMAT={-:-/ absolute / metric / decimal}
FMAT,2
METRIC,TZ
T1C0.400
T2C1.000
T3C1.500
T4C2.800
T5C3.200
T6C3.800
%
G90
G05
M71
T1
X83.2Y-77.9
X87.Y-77.25
X87.4Y-71.2
X88.Y-75.75
X88.75Y-78.
X88.75Y-80.5
X88.817Y-82.183
X89.Y-85.
X90.Y-73.5
X90.9Y-89.8
X91.25Y-88.75
X91.75Y-80.
X92.Y-82.25
X92.25Y-71.
X92.25Y-78.
X92.5Y-73.25
X92.5Y-75.75
X92.5Y-80.
X93.Y-68.5
X94.5Y-76.5
X94.5Y-89.
X94.75Y-91.25
X95.25Y-73.
X95.25Y-85.
X95.5Y-66.75
X95.5Y-80.75
X95.625Y-65.5
X95.75Y-78.75
X96.375Y-48.25
X96.5Y-82.75
X97.Y-66.75
X97.25Y-70.5
X97.25Y-72.75
X98.25Y-63.75
X102.75Y-63.25
X103.Y-72.75
X103.Y-76.25
X104.Y-70.5
X104.25Y-66.25
X104.475Y-45.7
X104.5Y-81.75
X104.75Y-73.
X105.5Y-75.25
X105.5Y-80.75
X105.5Y-84.75
X105.75Y-72.
X105.75Y-77.5
X105.75Y-85.75
X105.75Y-87.75
X106.5Y-83.
X106.5Y-89.25
X107.5Y-83.75
X107.75Y-76.25
X107.75Y-80.
X108.Y-73.25
X108.Y-78.75
X109.25Y-81.75
X109.625Y-85.75
X109.625Y-87.75
X109.625Y-88.75
X110.025Y-70.5
X110.5Y-74.75
X111.25Y-83.75
X111.25Y-85.
X112.Y-79.75
X112.Y-80.75
X112.75Y-73.
X113.Y-76.25
X114.Y-78.75
X114.Y-77.75
T2
X90.Y-33.
X90.Y-35.54
X90.Y-38.08
X90.Y-40.62
X90.Y-43.16
X90.Y-45.7
X90.Y-48.24
X90.Y-50.78
X90.Y-53.32
X90.Y-55.86
X92.54Y-33.
X92.54Y-35.54
X92.54Y-38.08
X92.54Y-40.62
X92.54Y-43.16
X92.54Y-45.7
X92.54Y-48.24
X92.54Y-50.78
X92.54Y-53.32
X92.54Y-55.86
X107.46Y-33.
X107.46Y-35.54
X107.46Y-38.08
X107.46Y-40.62
X107.46Y-43.16
X107.46Y-45.7
X107.46Y-48.24
X107.46Y-50.78
X107.46Y-53.32
X107.46Y-55.86
X110.Y-33.
X110.Y-35.54
X110.Y-38.08
X110.Y-40.62
X110.Y-43.16
X110.Y-45.7
X110.Y-48.24
X110.Y-50.78
X110.Y-53.32
X110.Y-55.86
T4
X100.Y-72.2
X100.Y-85.7
T5
X84.Y-24.
X84.Y-96.
X116.Y-24.
X116.Y-96.
T6
X100.Y-80.65
T3
X92.7Y-63.2G85X92.7Y-63.2
G05
X93.9Y-93.6G85X93.9Y-93.6
G05
X106.8Y-63.2G85X106.8Y-63.2
G05
T0
M30
