G04 #@! TF.FileFunction,Soldermask,Top*
%FSLAX46Y46*%
G04 Gerber Fmt 4.6, Leading zero omitted, Abs format (unit mm)*
G04 Created by KiCad (PCBNEW 4.0.6) date 03/31/18 20:42:20*
%MOMM*%
%LPD*%
G01*
G04 APERTURE LIST*
%ADD10C,0.100000*%
%ADD11C,6.800000*%
%ADD12O,1.900000X1.900000*%
%ADD13C,3.200000*%
%ADD14C,4.200000*%
%ADD15R,2.100000X2.100000*%
%ADD16O,2.100000X2.100000*%
G04 APERTURE END LIST*
D10*
D11*
X116000000Y-96000000D03*
X84000000Y-96000000D03*
X84000000Y-24000000D03*
D12*
X92700000Y-63200000D03*
X106800000Y-63200000D03*
D13*
X100000000Y-72200000D03*
D14*
X100000000Y-80650000D03*
D13*
X100000000Y-85700000D03*
D12*
X93900000Y-93600000D03*
D15*
X92540000Y-33000000D03*
D16*
X90000000Y-33000000D03*
X92540000Y-35540000D03*
X90000000Y-35540000D03*
X92540000Y-38080000D03*
X90000000Y-38080000D03*
X92540000Y-40620000D03*
X90000000Y-40620000D03*
X92540000Y-43160000D03*
X90000000Y-43160000D03*
X92540000Y-45700000D03*
X90000000Y-45700000D03*
X92540000Y-48240000D03*
X90000000Y-48240000D03*
X92540000Y-50780000D03*
X90000000Y-50780000D03*
X92540000Y-53320000D03*
X90000000Y-53320000D03*
X92540000Y-55860000D03*
X90000000Y-55860000D03*
D15*
X110000000Y-33000000D03*
D16*
X107460000Y-33000000D03*
X110000000Y-35540000D03*
X107460000Y-35540000D03*
X110000000Y-38080000D03*
X107460000Y-38080000D03*
X110000000Y-40620000D03*
X107460000Y-40620000D03*
X110000000Y-43160000D03*
X107460000Y-43160000D03*
X110000000Y-45700000D03*
X107460000Y-45700000D03*
X110000000Y-48240000D03*
X107460000Y-48240000D03*
X110000000Y-50780000D03*
X107460000Y-50780000D03*
X110000000Y-53320000D03*
X107460000Y-53320000D03*
X110000000Y-55860000D03*
X107460000Y-55860000D03*
D11*
X116000000Y-24000000D03*
M02*
