G04 #@! TF.FileFunction,Soldermask,Bot*
%FSLAX46Y46*%
G04 Gerber Fmt 4.6, Leading zero omitted, Abs format (unit mm)*
G04 Created by KiCad (PCBNEW 4.0.6) date 03/31/18 20:42:20*
%MOMM*%
%LPD*%
G01*
G04 APERTURE LIST*
%ADD10C,0.100000*%
%ADD11C,6.800000*%
%ADD12O,1.900000X1.900000*%
%ADD13C,3.200000*%
%ADD14C,4.200000*%
%ADD15C,1.700000*%
%ADD16R,2.100000X2.100000*%
%ADD17O,2.100000X2.100000*%
G04 APERTURE END LIST*
D10*
D11*
X116000000Y-96000000D03*
X84000000Y-96000000D03*
X84000000Y-24000000D03*
D12*
X92700000Y-63200000D03*
X106800000Y-63200000D03*
D13*
X100000000Y-72200000D03*
D14*
X100000000Y-80650000D03*
D15*
X93020000Y-90700000D03*
X94820000Y-90450000D03*
X96620000Y-75700000D03*
X106980000Y-90700000D03*
X105180000Y-90450000D03*
X106980000Y-88650000D03*
X106980000Y-86600000D03*
X106980000Y-84550000D03*
X106980000Y-82500000D03*
X106980000Y-80400000D03*
X106980000Y-78300000D03*
X106980000Y-76100000D03*
X106980000Y-73820000D03*
X106980000Y-71540000D03*
X106980000Y-69260000D03*
X105180000Y-88400000D03*
X105180000Y-86350000D03*
X105180000Y-84300000D03*
X105180000Y-82250000D03*
X105180000Y-80200000D03*
X105180000Y-78100000D03*
X105180000Y-75900000D03*
X105180000Y-73620000D03*
X105180000Y-71340000D03*
X105180000Y-69060000D03*
X103380000Y-75700000D03*
X103380000Y-73420000D03*
X103380000Y-71140000D03*
X103380000Y-68860000D03*
X96620000Y-73620000D03*
X96620000Y-71340000D03*
X96620000Y-69060000D03*
X93020000Y-88650000D03*
X93020000Y-86600000D03*
X93020000Y-84550000D03*
X93020000Y-82500000D03*
X93020000Y-80400000D03*
X93020000Y-78300000D03*
X93020000Y-76100000D03*
X93020000Y-73820000D03*
X93020000Y-71540000D03*
X93020000Y-69260000D03*
X94820000Y-88400000D03*
X94820000Y-86350000D03*
X94820000Y-84300000D03*
X94820000Y-82250000D03*
X94820000Y-80200000D03*
X94820000Y-78100000D03*
X94820000Y-75900000D03*
X94820000Y-73620000D03*
X94820000Y-71340000D03*
X94820000Y-69060000D03*
D13*
X100000000Y-85700000D03*
D12*
X93900000Y-93600000D03*
D16*
X92540000Y-33000000D03*
D17*
X90000000Y-33000000D03*
X92540000Y-35540000D03*
X90000000Y-35540000D03*
X92540000Y-38080000D03*
X90000000Y-38080000D03*
X92540000Y-40620000D03*
X90000000Y-40620000D03*
X92540000Y-43160000D03*
X90000000Y-43160000D03*
X92540000Y-45700000D03*
X90000000Y-45700000D03*
X92540000Y-48240000D03*
X90000000Y-48240000D03*
X92540000Y-50780000D03*
X90000000Y-50780000D03*
X92540000Y-53320000D03*
X90000000Y-53320000D03*
X92540000Y-55860000D03*
X90000000Y-55860000D03*
D16*
X110000000Y-33000000D03*
D17*
X107460000Y-33000000D03*
X110000000Y-35540000D03*
X107460000Y-35540000D03*
X110000000Y-38080000D03*
X107460000Y-38080000D03*
X110000000Y-40620000D03*
X107460000Y-40620000D03*
X110000000Y-43160000D03*
X107460000Y-43160000D03*
X110000000Y-45700000D03*
X107460000Y-45700000D03*
X110000000Y-48240000D03*
X107460000Y-48240000D03*
X110000000Y-50780000D03*
X107460000Y-50780000D03*
X110000000Y-53320000D03*
X107460000Y-53320000D03*
X110000000Y-55860000D03*
X107460000Y-55860000D03*
D11*
X116000000Y-24000000D03*
M02*
