M48
;DRILL file {KiCad 4.0.6} date 03/31/18 20:17:16
;FORMAT={-:-/ absolute / metric / decimal}
FMAT,2
METRIC,TZ
T1C0.400
T2C1.000
T3C1.500
T4C2.800
T5C3.200
T6C3.800
%
G90
G05
M71
T1
X83.59Y-46.8
X83.94Y-45.79
X84.2Y-83.2
X84.4Y-81.3
X84.4Y-84.6
X84.5Y-80.
X85.204Y-86.904
X85.3Y-53.6
X85.525Y-33.7
X85.525Y-43.675
X86.3Y-85.625
X86.4Y-60.525
X86.525Y-50.15
X86.95Y-51.175
X87.275Y-83.175
X87.775Y-32.65
X87.82Y-44.79
X87.825Y-52.925
X87.825Y-60.475
X88.9Y-85.5
X89.175Y-52.975
X89.325Y-86.525
X89.45Y-44.94
X89.9Y-80.1
X90.1Y-76.725
X90.3Y-60.7
X90.3Y-79.375
X90.35Y-50.2
X91.075Y-70.525
X91.3Y-90.15
X91.475Y-60.775
X91.61Y-50.19
X92.05Y-37.875
X92.25Y-29.55
X92.55Y-76.725
X92.563Y-80.65
X92.6Y-83.9
X92.81Y-26.73
X92.925Y-30.55
X92.925Y-44.175
X92.95Y-57.575
X92.975Y-50.2
X93.125Y-37.85
X93.525Y-74.3
X93.625Y-70.
X93.8Y-26.075
X93.975Y-89.625
X94.16Y-50.22
X94.175Y-44.375
X94.19Y-35.03
X94.2Y-60.725
X94.2Y-87.725
X94.25Y-75.35
X94.275Y-37.85
X95.15Y-67.4
X95.2Y-26.8
X95.46Y-35.03
X95.5Y-72.9
X95.5Y-84.4
X95.525Y-44.35
X95.725Y-81.75
X96.225Y-76.425
X96.825Y-78.425
X96.825Y-80.825
X96.875Y-30.925
X97.225Y-72.875
X97.4Y-68.4
X97.6Y-34.4
X98.4Y-39.6
X98.85Y-46.175
X99.025Y-30.375
X99.075Y-69.2
X99.35Y-68.075
X99.575Y-43.175
X99.575Y-44.475
X99.575Y-41.825
X100.3Y-25.
X100.8Y-26.8
X101.275Y-76.025
X101.3Y-68.525
X102.425Y-77.425
X103.2Y-76.6
X103.35Y-81.475
X103.4Y-46.2
X103.4Y-67.2
X104.05Y-72.05
X104.05Y-74.4
X104.1Y-23.
X104.55Y-85.75
X104.7Y-65.6
X105.625Y-72.95
X105.7Y-70.025
X105.7Y-76.85
X105.8Y-83.
X105.875Y-89.8
X106.3Y-85.22
X106.325Y-22.65
X106.5Y-81.925
X107.2Y-42.
X107.2Y-43.6
X107.825Y-89.075
X108.7Y-23.
X109.185Y-78.7
X109.25Y-89.27
X109.4Y-52.2
X109.6Y-90.175
X110.2Y-43.8
X110.85Y-78.
X111.4Y-40.4
X111.9Y-83.4
X112.3Y-81.3
X112.425Y-50.125
X112.675Y-84.855
X113.2Y-81.4
X113.2Y-82.6
X113.26Y-80.05
X113.6Y-39.6
X114.1Y-40.8
X114.625Y-62.675
X114.825Y-60.775
X115.1Y-40.1
X115.6Y-84.7
X115.675Y-35.175
X117.675Y-35.275
T2
X82.Y-50.
X82.Y-52.54
X82.Y-55.08
X82.Y-57.62
X82.Y-60.16
X82.Y-62.7
X82.Y-65.24
X82.Y-67.78
X82.Y-70.32
X82.Y-72.86
X82.Y-75.4
X82.Y-77.94
X82.Y-80.48
X82.Y-83.02
X82.Y-85.56
X82.Y-88.1
X118.Y-50.
X118.Y-52.54
X118.Y-55.08
X118.Y-57.62
X118.Y-60.16
X118.Y-62.7
X118.Y-65.24
X118.Y-67.78
X118.Y-70.32
X118.Y-72.86
X118.Y-75.4
X118.Y-77.94
X118.Y-80.48
X118.Y-83.02
X118.Y-85.56
X118.Y-88.1
T4
X100.Y-72.2
X100.Y-85.7
T5
X84.Y-24.
X84.Y-96.
X116.Y-24.
X116.Y-96.
T6
X100.Y-80.65
T3
X92.7Y-63.2G85X92.7Y-63.2
G05
X93.9Y-93.6G85X93.9Y-93.6
G05
X106.8Y-63.2G85X106.8Y-63.2
G05
T0
M30
