G04 #@! TF.FileFunction,Legend,Bot*
%FSLAX46Y46*%
G04 Gerber Fmt 4.6, Leading zero omitted, Abs format (unit mm)*
G04 Created by KiCad (PCBNEW 4.0.6) date 03/31/18 20:42:20*
%MOMM*%
%LPD*%
G01*
G04 APERTURE LIST*
%ADD10C,0.100000*%
%ADD11C,0.150000*%
G04 APERTURE END LIST*
D10*
D11*
X108280000Y-61650000D02*
G75*
G02X109280000Y-62650000I0J-1000000D01*
G01*
X90220000Y-94000000D02*
G75*
G03X91220000Y-95000000I1000000J0D01*
G01*
X91220000Y-61650000D02*
G75*
G03X90220000Y-62650000I0J-1000000D01*
G01*
X109280000Y-91400000D02*
X107130000Y-95000000D01*
X107130000Y-95000000D02*
X91220000Y-95000000D01*
X90220000Y-94000000D02*
X90220000Y-62650000D01*
X91220000Y-61650000D02*
X108280000Y-61650000D01*
X109280000Y-62650000D02*
X109280000Y-91400000D01*
X101071428Y-63857143D02*
X101119047Y-63904762D01*
X101261904Y-63952381D01*
X101357142Y-63952381D01*
X101500000Y-63904762D01*
X101595238Y-63809524D01*
X101642857Y-63714286D01*
X101690476Y-63523810D01*
X101690476Y-63380952D01*
X101642857Y-63190476D01*
X101595238Y-63095238D01*
X101500000Y-63000000D01*
X101357142Y-62952381D01*
X101261904Y-62952381D01*
X101119047Y-63000000D01*
X101071428Y-63047619D01*
X100500000Y-63952381D02*
X100595238Y-63904762D01*
X100642857Y-63857143D01*
X100690476Y-63761905D01*
X100690476Y-63476190D01*
X100642857Y-63380952D01*
X100595238Y-63333333D01*
X100500000Y-63285714D01*
X100357142Y-63285714D01*
X100261904Y-63333333D01*
X100214285Y-63380952D01*
X100166666Y-63476190D01*
X100166666Y-63761905D01*
X100214285Y-63857143D01*
X100261904Y-63904762D01*
X100357142Y-63952381D01*
X100500000Y-63952381D01*
X99738095Y-63285714D02*
X99738095Y-63952381D01*
X99738095Y-63380952D02*
X99690476Y-63333333D01*
X99595238Y-63285714D01*
X99452380Y-63285714D01*
X99357142Y-63333333D01*
X99309523Y-63428571D01*
X99309523Y-63952381D01*
X98309523Y-63952381D02*
X98880952Y-63952381D01*
X98595238Y-63952381D02*
X98595238Y-62952381D01*
X98690476Y-63095238D01*
X98785714Y-63190476D01*
X98880952Y-63238095D01*
M02*
