G04 #@! TF.FileFunction,Soldermask,Top*
%FSLAX46Y46*%
G04 Gerber Fmt 4.6, Leading zero omitted, Abs format (unit mm)*
G04 Created by KiCad (PCBNEW 4.0.6) date 03/31/18 20:17:10*
%MOMM*%
%LPD*%
G01*
G04 APERTURE LIST*
%ADD10C,0.100000*%
%ADD11R,1.000000X1.900000*%
%ADD12C,6.800000*%
%ADD13R,1.150000X1.200000*%
%ADD14R,1.200000X1.150000*%
%ADD15R,2.900000X4.400000*%
%ADD16R,2.000000X3.000000*%
%ADD17O,1.900000X1.900000*%
%ADD18C,3.200000*%
%ADD19C,4.200000*%
%ADD20R,1.850000X0.850000*%
%ADD21R,1.000000X1.950000*%
%ADD22R,1.200000X1.300000*%
%ADD23R,1.010000X1.420000*%
%ADD24R,1.010000X1.670000*%
%ADD25R,4.310000X4.210000*%
%ADD26R,1.300000X0.900000*%
%ADD27R,2.100000X2.100000*%
%ADD28O,2.100000X2.100000*%
G04 APERTURE END LIST*
D10*
D11*
X86555000Y-48825000D03*
X87825000Y-48825000D03*
X89095000Y-48825000D03*
X90365000Y-48825000D03*
X91635000Y-48825000D03*
X92905000Y-48825000D03*
X94175000Y-48825000D03*
X95445000Y-48825000D03*
X95445000Y-43425000D03*
X94175000Y-43425000D03*
X92905000Y-43425000D03*
X91635000Y-43425000D03*
X90365000Y-43425000D03*
X89095000Y-43425000D03*
X87825000Y-43425000D03*
X86555000Y-43425000D03*
D12*
X84000000Y-24000000D03*
X116000000Y-24000000D03*
X116000000Y-96000000D03*
D13*
X97200000Y-49150000D03*
X97200000Y-47650000D03*
D14*
X91550000Y-86525000D03*
X90050000Y-86525000D03*
D15*
X110600000Y-73800000D03*
X110600000Y-67700000D03*
D14*
X109950000Y-86250000D03*
X108450000Y-86250000D03*
D13*
X97200000Y-39600000D03*
X97200000Y-38100000D03*
X99400000Y-28800000D03*
X99400000Y-27300000D03*
X97200000Y-59750000D03*
X97200000Y-58250000D03*
D16*
X105000000Y-39200000D03*
X105000000Y-42800000D03*
D13*
X111639708Y-44141646D03*
X111639708Y-42641646D03*
X100900000Y-32900000D03*
X100900000Y-34400000D03*
D17*
X92700000Y-63200000D03*
X106800000Y-63200000D03*
D18*
X100000000Y-72200000D03*
D19*
X100000000Y-80650000D03*
D18*
X100000000Y-85700000D03*
D17*
X93900000Y-93600000D03*
D11*
X86555000Y-39100000D03*
X87825000Y-39100000D03*
X89095000Y-39100000D03*
X90365000Y-39100000D03*
X91635000Y-39100000D03*
X92905000Y-39100000D03*
X94175000Y-39100000D03*
X95445000Y-39100000D03*
X95445000Y-33700000D03*
X94175000Y-33700000D03*
X92905000Y-33700000D03*
X91635000Y-33700000D03*
X90365000Y-33700000D03*
X89095000Y-33700000D03*
X87825000Y-33700000D03*
X86555000Y-33700000D03*
D20*
X85675000Y-78700000D03*
X85675000Y-79350000D03*
X85675000Y-80000000D03*
X85675000Y-80650000D03*
X85675000Y-81300000D03*
X85675000Y-81950000D03*
X85675000Y-82600000D03*
X85675000Y-83250000D03*
X85675000Y-83900000D03*
X85675000Y-84550000D03*
X91575000Y-84550000D03*
X91575000Y-83900000D03*
X91575000Y-83250000D03*
X91575000Y-82600000D03*
X91575000Y-81950000D03*
X91575000Y-81300000D03*
X91575000Y-80650000D03*
X91575000Y-80000000D03*
X91575000Y-79350000D03*
X91575000Y-78700000D03*
X114425000Y-84625000D03*
X114425000Y-83975000D03*
X114425000Y-83325000D03*
X114425000Y-82675000D03*
X114425000Y-82025000D03*
X114425000Y-81375000D03*
X114425000Y-80725000D03*
X114425000Y-80075000D03*
X114425000Y-79425000D03*
X114425000Y-78775000D03*
X108525000Y-78775000D03*
X108525000Y-79425000D03*
X108525000Y-80075000D03*
X108525000Y-80725000D03*
X108525000Y-81375000D03*
X108525000Y-82025000D03*
X108525000Y-82675000D03*
X108525000Y-83325000D03*
X108525000Y-83975000D03*
X108525000Y-84625000D03*
D11*
X89990000Y-28500000D03*
X91260000Y-28500000D03*
X92530000Y-28500000D03*
X93800000Y-28500000D03*
X95070000Y-28500000D03*
X96340000Y-28500000D03*
X97610000Y-28500000D03*
X97610000Y-23100000D03*
X96340000Y-23100000D03*
X95070000Y-23100000D03*
X93800000Y-23100000D03*
X92530000Y-23100000D03*
X91260000Y-23100000D03*
X89990000Y-23100000D03*
X86555000Y-59400000D03*
X87825000Y-59400000D03*
X89095000Y-59400000D03*
X90365000Y-59400000D03*
X91635000Y-59400000D03*
X92905000Y-59400000D03*
X94175000Y-59400000D03*
X95445000Y-59400000D03*
X95445000Y-54000000D03*
X94175000Y-54000000D03*
X92905000Y-54000000D03*
X91635000Y-54000000D03*
X90365000Y-54000000D03*
X89095000Y-54000000D03*
X87825000Y-54000000D03*
X86555000Y-54000000D03*
D21*
X113734708Y-43941646D03*
X115004708Y-43941646D03*
X116274708Y-43941646D03*
X117544708Y-43941646D03*
X117544708Y-38541646D03*
X116274708Y-38541646D03*
X115004708Y-38541646D03*
X113734708Y-38541646D03*
D22*
X101750000Y-24800000D03*
X103650000Y-24800000D03*
X102700000Y-22800000D03*
X106200000Y-24800000D03*
X108100000Y-24800000D03*
X107150000Y-22800000D03*
D23*
X107200000Y-52865000D03*
X105930000Y-52865000D03*
X104660000Y-52865000D03*
X103390000Y-52865000D03*
D24*
X103390000Y-47400000D03*
X104660000Y-47400000D03*
X105930000Y-47400000D03*
X107200000Y-47400000D03*
D25*
X105295000Y-50765000D03*
D26*
X101600000Y-27250000D03*
X101600000Y-28750000D03*
X103800000Y-27250000D03*
X103800000Y-28750000D03*
X106200000Y-27250000D03*
X106200000Y-28750000D03*
X108400000Y-27250000D03*
X108400000Y-28750000D03*
X109639708Y-38241646D03*
X109639708Y-39741646D03*
X111639708Y-39741646D03*
X111639708Y-38241646D03*
X111800000Y-51607029D03*
X111800000Y-50107029D03*
X109639708Y-42591646D03*
X109639708Y-44091646D03*
X109400000Y-50107029D03*
X109400000Y-51607029D03*
X98900000Y-34400000D03*
X98900000Y-32900000D03*
X115685219Y-34573175D03*
X115685219Y-33073175D03*
X117685219Y-34573175D03*
X117685219Y-33073175D03*
D12*
X84000000Y-96000000D03*
D27*
X118000000Y-50000000D03*
D28*
X118000000Y-52540000D03*
X118000000Y-55080000D03*
X118000000Y-57620000D03*
X118000000Y-60160000D03*
X118000000Y-62700000D03*
X118000000Y-65240000D03*
X118000000Y-67780000D03*
X118000000Y-70320000D03*
X118000000Y-72860000D03*
X118000000Y-75400000D03*
X118000000Y-77940000D03*
X118000000Y-80480000D03*
X118000000Y-83020000D03*
X118000000Y-85560000D03*
X118000000Y-88100000D03*
D27*
X82000000Y-50000000D03*
D28*
X82000000Y-52540000D03*
X82000000Y-55080000D03*
X82000000Y-57620000D03*
X82000000Y-60160000D03*
X82000000Y-62700000D03*
X82000000Y-65240000D03*
X82000000Y-67780000D03*
X82000000Y-70320000D03*
X82000000Y-72860000D03*
X82000000Y-75400000D03*
X82000000Y-77940000D03*
X82000000Y-80480000D03*
X82000000Y-83020000D03*
X82000000Y-85560000D03*
X82000000Y-88100000D03*
D15*
X89075000Y-73650000D03*
X89075000Y-67550000D03*
M02*
