G04 #@! TF.FileFunction,Legend,Top*
%FSLAX46Y46*%
G04 Gerber Fmt 4.6, Leading zero omitted, Abs format (unit mm)*
G04 Created by KiCad (PCBNEW 4.0.6) date 03/31/18 20:17:10*
%MOMM*%
%LPD*%
G01*
G04 APERTURE LIST*
%ADD10C,0.100000*%
%ADD11C,0.400000*%
%ADD12C,0.300000*%
%ADD13C,0.200000*%
%ADD14C,0.150000*%
%ADD15C,0.120000*%
%ADD16C,0.010000*%
G04 APERTURE END LIST*
D10*
D11*
X87526385Y-78875000D02*
G75*
G03X87526385Y-78875000I-226385J0D01*
G01*
X113126385Y-84050000D02*
G75*
G03X113126385Y-84050000I-226385J0D01*
G01*
X86776385Y-37550000D02*
G75*
G03X86776385Y-37550000I-226385J0D01*
G01*
X113901385Y-42450000D02*
G75*
G03X113901385Y-42450000I-226385J0D01*
G01*
X90326385Y-26500000D02*
G75*
G03X90326385Y-26500000I-226385J0D01*
G01*
X86801385Y-47275000D02*
G75*
G03X86801385Y-47275000I-226385J0D01*
G01*
X86826385Y-57800000D02*
G75*
G03X86826385Y-57800000I-226385J0D01*
G01*
D12*
X115528572Y-50478571D02*
X114671429Y-50478571D01*
X115100001Y-50478571D02*
X115100001Y-48978571D01*
X114957144Y-49192857D01*
X114814286Y-49335714D01*
X114671429Y-49407143D01*
X85328572Y-49478571D02*
X84471429Y-49478571D01*
X84900001Y-49478571D02*
X84900001Y-47978571D01*
X84757144Y-48192857D01*
X84614286Y-48335714D01*
X84471429Y-48407143D01*
D13*
X92182144Y-66042857D02*
X92182144Y-64842857D01*
X92182144Y-65414286D02*
X92867859Y-65414286D01*
X92867859Y-66042857D02*
X92867859Y-64842857D01*
X93439287Y-66042857D02*
X93439287Y-64842857D01*
X93896430Y-64842857D01*
X94010716Y-64900000D01*
X94067859Y-64957143D01*
X94125002Y-65071429D01*
X94125002Y-65242857D01*
X94067859Y-65357143D01*
X94010716Y-65414286D01*
X93896430Y-65471429D01*
X93439287Y-65471429D01*
X95153573Y-65242857D02*
X95153573Y-66042857D01*
X94867859Y-64785714D02*
X94582144Y-65642857D01*
X95325002Y-65642857D01*
X96353573Y-64842857D02*
X95782144Y-64842857D01*
X95725001Y-65414286D01*
X95782144Y-65357143D01*
X95896430Y-65300000D01*
X96182144Y-65300000D01*
X96296430Y-65357143D01*
X96353573Y-65414286D01*
X96410716Y-65528571D01*
X96410716Y-65814286D01*
X96353573Y-65928571D01*
X96296430Y-65985714D01*
X96182144Y-66042857D01*
X95896430Y-66042857D01*
X95782144Y-65985714D01*
X95725001Y-65928571D01*
X97782144Y-65985714D02*
X97953573Y-66042857D01*
X98239287Y-66042857D01*
X98353573Y-65985714D01*
X98410716Y-65928571D01*
X98467859Y-65814286D01*
X98467859Y-65700000D01*
X98410716Y-65585714D01*
X98353573Y-65528571D01*
X98239287Y-65471429D01*
X98010716Y-65414286D01*
X97896430Y-65357143D01*
X97839287Y-65300000D01*
X97782144Y-65185714D01*
X97782144Y-65071429D01*
X97839287Y-64957143D01*
X97896430Y-64900000D01*
X98010716Y-64842857D01*
X98296430Y-64842857D01*
X98467859Y-64900000D01*
X98810716Y-65242857D02*
X99267859Y-65242857D01*
X98982144Y-64842857D02*
X98982144Y-65871429D01*
X99039287Y-65985714D01*
X99153573Y-66042857D01*
X99267859Y-66042857D01*
X100182144Y-66042857D02*
X100182144Y-65414286D01*
X100125001Y-65300000D01*
X100010715Y-65242857D01*
X99782144Y-65242857D01*
X99667858Y-65300000D01*
X100182144Y-65985714D02*
X100067858Y-66042857D01*
X99782144Y-66042857D01*
X99667858Y-65985714D01*
X99610715Y-65871429D01*
X99610715Y-65757143D01*
X99667858Y-65642857D01*
X99782144Y-65585714D01*
X100067858Y-65585714D01*
X100182144Y-65528571D01*
X100753572Y-65242857D02*
X100753572Y-66042857D01*
X100753572Y-65357143D02*
X100810715Y-65300000D01*
X100925001Y-65242857D01*
X101096429Y-65242857D01*
X101210715Y-65300000D01*
X101267858Y-65414286D01*
X101267858Y-66042857D01*
X102353572Y-66042857D02*
X102353572Y-64842857D01*
X102353572Y-65985714D02*
X102239286Y-66042857D01*
X102010715Y-66042857D01*
X101896429Y-65985714D01*
X101839286Y-65928571D01*
X101782143Y-65814286D01*
X101782143Y-65471429D01*
X101839286Y-65357143D01*
X101896429Y-65300000D01*
X102010715Y-65242857D01*
X102239286Y-65242857D01*
X102353572Y-65300000D01*
X103439286Y-66042857D02*
X103439286Y-65414286D01*
X103382143Y-65300000D01*
X103267857Y-65242857D01*
X103039286Y-65242857D01*
X102925000Y-65300000D01*
X103439286Y-65985714D02*
X103325000Y-66042857D01*
X103039286Y-66042857D01*
X102925000Y-65985714D01*
X102867857Y-65871429D01*
X102867857Y-65757143D01*
X102925000Y-65642857D01*
X103039286Y-65585714D01*
X103325000Y-65585714D01*
X103439286Y-65528571D01*
X104182143Y-66042857D02*
X104067857Y-65985714D01*
X104010714Y-65871429D01*
X104010714Y-64842857D01*
X104810714Y-66042857D02*
X104696428Y-65985714D01*
X104639285Y-65928571D01*
X104582142Y-65814286D01*
X104582142Y-65471429D01*
X104639285Y-65357143D01*
X104696428Y-65300000D01*
X104810714Y-65242857D01*
X104982142Y-65242857D01*
X105096428Y-65300000D01*
X105153571Y-65357143D01*
X105210714Y-65471429D01*
X105210714Y-65814286D01*
X105153571Y-65928571D01*
X105096428Y-65985714D01*
X104982142Y-66042857D01*
X104810714Y-66042857D01*
X105724999Y-65242857D02*
X105724999Y-66042857D01*
X105724999Y-65357143D02*
X105782142Y-65300000D01*
X105896428Y-65242857D01*
X106067856Y-65242857D01*
X106182142Y-65300000D01*
X106239285Y-65414286D01*
X106239285Y-66042857D01*
X107267856Y-65985714D02*
X107153570Y-66042857D01*
X106924999Y-66042857D01*
X106810713Y-65985714D01*
X106753570Y-65871429D01*
X106753570Y-65414286D01*
X106810713Y-65300000D01*
X106924999Y-65242857D01*
X107153570Y-65242857D01*
X107267856Y-65300000D01*
X107324999Y-65414286D01*
X107324999Y-65528571D01*
X106753570Y-65642857D01*
X94267858Y-66842857D02*
X94667858Y-68042857D01*
X95067858Y-66842857D01*
X95353572Y-66842857D02*
X96096429Y-66842857D01*
X95696429Y-67300000D01*
X95867857Y-67300000D01*
X95982143Y-67357143D01*
X96039286Y-67414286D01*
X96096429Y-67528571D01*
X96096429Y-67814286D01*
X96039286Y-67928571D01*
X95982143Y-67985714D01*
X95867857Y-68042857D01*
X95525000Y-68042857D01*
X95410714Y-67985714D01*
X95353572Y-67928571D01*
X96610714Y-67928571D02*
X96667857Y-67985714D01*
X96610714Y-68042857D01*
X96553571Y-67985714D01*
X96610714Y-67928571D01*
X96610714Y-68042857D01*
X97410715Y-66842857D02*
X97525000Y-66842857D01*
X97639286Y-66900000D01*
X97696429Y-66957143D01*
X97753572Y-67071429D01*
X97810715Y-67300000D01*
X97810715Y-67585714D01*
X97753572Y-67814286D01*
X97696429Y-67928571D01*
X97639286Y-67985714D01*
X97525000Y-68042857D01*
X97410715Y-68042857D01*
X97296429Y-67985714D01*
X97239286Y-67928571D01*
X97182143Y-67814286D01*
X97125000Y-67585714D01*
X97125000Y-67300000D01*
X97182143Y-67071429D01*
X97239286Y-66957143D01*
X97296429Y-66900000D01*
X97410715Y-66842857D01*
X98553572Y-66842857D02*
X98667857Y-66842857D01*
X98782143Y-66900000D01*
X98839286Y-66957143D01*
X98896429Y-67071429D01*
X98953572Y-67300000D01*
X98953572Y-67585714D01*
X98896429Y-67814286D01*
X98839286Y-67928571D01*
X98782143Y-67985714D01*
X98667857Y-68042857D01*
X98553572Y-68042857D01*
X98439286Y-67985714D01*
X98382143Y-67928571D01*
X98325000Y-67814286D01*
X98267857Y-67585714D01*
X98267857Y-67300000D01*
X98325000Y-67071429D01*
X98382143Y-66957143D01*
X98439286Y-66900000D01*
X98553572Y-66842857D01*
X100382143Y-68042857D02*
X100382143Y-66842857D01*
X100667858Y-66842857D01*
X100839286Y-66900000D01*
X100953572Y-67014286D01*
X101010715Y-67128571D01*
X101067858Y-67357143D01*
X101067858Y-67528571D01*
X101010715Y-67757143D01*
X100953572Y-67871429D01*
X100839286Y-67985714D01*
X100667858Y-68042857D01*
X100382143Y-68042857D01*
X101582143Y-68042857D02*
X101582143Y-67242857D01*
X101582143Y-67471429D02*
X101639286Y-67357143D01*
X101696429Y-67300000D01*
X101810715Y-67242857D01*
X101925000Y-67242857D01*
X102325000Y-68042857D02*
X102325000Y-67242857D01*
X102325000Y-66842857D02*
X102267857Y-66900000D01*
X102325000Y-66957143D01*
X102382143Y-66900000D01*
X102325000Y-66842857D01*
X102325000Y-66957143D01*
X102782144Y-67242857D02*
X103067858Y-68042857D01*
X103353572Y-67242857D01*
X104267858Y-67985714D02*
X104153572Y-68042857D01*
X103925001Y-68042857D01*
X103810715Y-67985714D01*
X103753572Y-67871429D01*
X103753572Y-67414286D01*
X103810715Y-67300000D01*
X103925001Y-67242857D01*
X104153572Y-67242857D01*
X104267858Y-67300000D01*
X104325001Y-67414286D01*
X104325001Y-67528571D01*
X103753572Y-67642857D01*
X104839286Y-68042857D02*
X104839286Y-67242857D01*
X104839286Y-67471429D02*
X104896429Y-67357143D01*
X104953572Y-67300000D01*
X105067858Y-67242857D01*
X105182143Y-67242857D01*
X95239287Y-62721429D02*
X95239287Y-63292857D01*
X94839287Y-62092857D02*
X95239287Y-62721429D01*
X95639287Y-62092857D01*
X95867858Y-62492857D02*
X96325001Y-62492857D01*
X96039286Y-62092857D02*
X96039286Y-63121429D01*
X96096429Y-63235714D01*
X96210715Y-63292857D01*
X96325001Y-63292857D01*
X97182143Y-63235714D02*
X97067857Y-63292857D01*
X96839286Y-63292857D01*
X96725000Y-63235714D01*
X96667857Y-63121429D01*
X96667857Y-62664286D01*
X96725000Y-62550000D01*
X96839286Y-62492857D01*
X97067857Y-62492857D01*
X97182143Y-62550000D01*
X97239286Y-62664286D01*
X97239286Y-62778571D01*
X96667857Y-62892857D01*
X98267857Y-63235714D02*
X98153571Y-63292857D01*
X97925000Y-63292857D01*
X97810714Y-63235714D01*
X97753571Y-63178571D01*
X97696428Y-63064286D01*
X97696428Y-62721429D01*
X97753571Y-62607143D01*
X97810714Y-62550000D01*
X97925000Y-62492857D01*
X98153571Y-62492857D01*
X98267857Y-62550000D01*
X98667857Y-62092857D02*
X99410714Y-62092857D01*
X99010714Y-62550000D01*
X99182142Y-62550000D01*
X99296428Y-62607143D01*
X99353571Y-62664286D01*
X99410714Y-62778571D01*
X99410714Y-63064286D01*
X99353571Y-63178571D01*
X99296428Y-63235714D01*
X99182142Y-63292857D01*
X98839285Y-63292857D01*
X98724999Y-63235714D01*
X98667857Y-63178571D01*
X99924999Y-63292857D02*
X99924999Y-62092857D01*
X100210714Y-62092857D01*
X100382142Y-62150000D01*
X100496428Y-62264286D01*
X100553571Y-62378571D01*
X100610714Y-62607143D01*
X100610714Y-62778571D01*
X100553571Y-63007143D01*
X100496428Y-63121429D01*
X100382142Y-63235714D01*
X100210714Y-63292857D01*
X99924999Y-63292857D01*
X101124999Y-63178571D02*
X101182142Y-63235714D01*
X101124999Y-63292857D01*
X101067856Y-63235714D01*
X101124999Y-63178571D01*
X101124999Y-63292857D01*
X102210714Y-63235714D02*
X102096428Y-63292857D01*
X101867857Y-63292857D01*
X101753571Y-63235714D01*
X101696428Y-63178571D01*
X101639285Y-63064286D01*
X101639285Y-62721429D01*
X101696428Y-62607143D01*
X101753571Y-62550000D01*
X101867857Y-62492857D01*
X102096428Y-62492857D01*
X102210714Y-62550000D01*
X102896428Y-63292857D02*
X102782142Y-63235714D01*
X102724999Y-63178571D01*
X102667856Y-63064286D01*
X102667856Y-62721429D01*
X102724999Y-62607143D01*
X102782142Y-62550000D01*
X102896428Y-62492857D01*
X103067856Y-62492857D01*
X103182142Y-62550000D01*
X103239285Y-62607143D01*
X103296428Y-62721429D01*
X103296428Y-63064286D01*
X103239285Y-63178571D01*
X103182142Y-63235714D01*
X103067856Y-63292857D01*
X102896428Y-63292857D01*
X103810713Y-63292857D02*
X103810713Y-62492857D01*
X103810713Y-62607143D02*
X103867856Y-62550000D01*
X103982142Y-62492857D01*
X104153570Y-62492857D01*
X104267856Y-62550000D01*
X104324999Y-62664286D01*
X104324999Y-63292857D01*
X104324999Y-62664286D02*
X104382142Y-62550000D01*
X104496428Y-62492857D01*
X104667856Y-62492857D01*
X104782142Y-62550000D01*
X104839285Y-62664286D01*
X104839285Y-63292857D01*
D14*
X85925000Y-48200000D02*
X85950000Y-48200000D01*
X85925000Y-44050000D02*
X86030000Y-44050000D01*
X96075000Y-44050000D02*
X95970000Y-44050000D01*
X96075000Y-48200000D02*
X95970000Y-48200000D01*
X85925000Y-48200000D02*
X85925000Y-44050000D01*
X96075000Y-48200000D02*
X96075000Y-44050000D01*
X85950000Y-48200000D02*
X85950000Y-49575000D01*
D15*
X96600000Y-48750000D02*
X96600000Y-48050000D01*
X97800000Y-48050000D02*
X97800000Y-48750000D01*
X91150000Y-87125000D02*
X90450000Y-87125000D01*
X90450000Y-85925000D02*
X91150000Y-85925000D01*
X114790000Y-66560000D02*
X112110000Y-66560000D01*
X106410000Y-66560000D02*
X109090000Y-66560000D01*
X107170000Y-74940000D02*
X109090000Y-74940000D01*
X114030000Y-74940000D02*
X112110000Y-74940000D01*
X114790000Y-66560000D02*
X114790000Y-74180000D01*
X114790000Y-74180000D02*
X114030000Y-74940000D01*
X107170000Y-74940000D02*
X106410000Y-74180000D01*
X106410000Y-74180000D02*
X106410000Y-66560000D01*
X109550000Y-86850000D02*
X108850000Y-86850000D01*
X108850000Y-85650000D02*
X109550000Y-85650000D01*
X96600000Y-39200000D02*
X96600000Y-38500000D01*
X97800000Y-38500000D02*
X97800000Y-39200000D01*
X98800000Y-28400000D02*
X98800000Y-27700000D01*
X100000000Y-27700000D02*
X100000000Y-28400000D01*
X96600000Y-59350000D02*
X96600000Y-58650000D01*
X97800000Y-58650000D02*
X97800000Y-59350000D01*
X103480000Y-38710000D02*
X103880000Y-38710000D01*
X102710000Y-43290000D02*
X103880000Y-43290000D01*
X107290000Y-43290000D02*
X106120000Y-43290000D01*
X106520000Y-38710000D02*
X106120000Y-38710000D01*
X102710000Y-39480000D02*
X102710000Y-43290000D01*
X102710000Y-39480000D02*
X103480000Y-38710000D01*
X107290000Y-39480000D02*
X107290000Y-43290000D01*
X107290000Y-39480000D02*
X106520000Y-38710000D01*
X111039708Y-43741646D02*
X111039708Y-43041646D01*
X112239708Y-43041646D02*
X112239708Y-43741646D01*
X101500000Y-33300000D02*
X101500000Y-34000000D01*
X100300000Y-34000000D02*
X100300000Y-33300000D01*
D14*
X85925000Y-38475000D02*
X85950000Y-38475000D01*
X85925000Y-34325000D02*
X86030000Y-34325000D01*
X96075000Y-34325000D02*
X95970000Y-34325000D01*
X96075000Y-38475000D02*
X95970000Y-38475000D01*
X85925000Y-38475000D02*
X85925000Y-34325000D01*
X96075000Y-38475000D02*
X96075000Y-34325000D01*
X85950000Y-38475000D02*
X85950000Y-39850000D01*
X86400000Y-85075000D02*
X90850000Y-85075000D01*
X84875000Y-78175000D02*
X90850000Y-78175000D01*
X113700000Y-78250000D02*
X109250000Y-78250000D01*
X115225000Y-85150000D02*
X109250000Y-85150000D01*
X89350000Y-27875000D02*
X89375000Y-27875000D01*
X89350000Y-23725000D02*
X89465000Y-23725000D01*
X98250000Y-23725000D02*
X98135000Y-23725000D01*
X98250000Y-27875000D02*
X98135000Y-27875000D01*
X89350000Y-27875000D02*
X89350000Y-23725000D01*
X98250000Y-27875000D02*
X98250000Y-23725000D01*
X89375000Y-27875000D02*
X89375000Y-29250000D01*
X85925000Y-58775000D02*
X85950000Y-58775000D01*
X85925000Y-54625000D02*
X86030000Y-54625000D01*
X96075000Y-54625000D02*
X95970000Y-54625000D01*
X96075000Y-58775000D02*
X95970000Y-58775000D01*
X85925000Y-58775000D02*
X85925000Y-54625000D01*
X96075000Y-58775000D02*
X96075000Y-54625000D01*
X85950000Y-58775000D02*
X85950000Y-60150000D01*
X113064708Y-43316646D02*
X113114708Y-43316646D01*
X113064708Y-39166646D02*
X113209708Y-39166646D01*
X118214708Y-39166646D02*
X118069708Y-39166646D01*
X118214708Y-43316646D02*
X118069708Y-43316646D01*
X113064708Y-43316646D02*
X113064708Y-39166646D01*
X118214708Y-43316646D02*
X118214708Y-39166646D01*
X113114708Y-43316646D02*
X113114708Y-44716646D01*
D15*
X104280000Y-23040000D02*
X103350000Y-23040000D01*
X101120000Y-23040000D02*
X102050000Y-23040000D01*
X101120000Y-23040000D02*
X101120000Y-25200000D01*
X104280000Y-23040000D02*
X104280000Y-24500000D01*
X108730000Y-23040000D02*
X107800000Y-23040000D01*
X105570000Y-23040000D02*
X106500000Y-23040000D01*
X105570000Y-23040000D02*
X105570000Y-25200000D01*
X108730000Y-23040000D02*
X108730000Y-24500000D01*
D12*
X108293921Y-48670000D02*
G75*
G03X108293921Y-48670000I-141421J0D01*
G01*
D14*
X107331513Y-48987500D02*
G75*
G03X107331513Y-48987500I-449013J0D01*
G01*
X107517500Y-48352500D02*
X103072500Y-48352500D01*
X103072500Y-48352500D02*
X103072500Y-52162500D01*
X103072500Y-52162500D02*
X107517500Y-52162500D01*
X107517500Y-52162500D02*
X107517500Y-48352500D01*
D15*
X100920000Y-28500000D02*
X100920000Y-27500000D01*
X102280000Y-27500000D02*
X102280000Y-28500000D01*
X103120000Y-28500000D02*
X103120000Y-27500000D01*
X104480000Y-27500000D02*
X104480000Y-28500000D01*
X105520000Y-28500000D02*
X105520000Y-27500000D01*
X106880000Y-27500000D02*
X106880000Y-28500000D01*
X107720000Y-28500000D02*
X107720000Y-27500000D01*
X109080000Y-27500000D02*
X109080000Y-28500000D01*
X108959708Y-39491646D02*
X108959708Y-38491646D01*
X110319708Y-38491646D02*
X110319708Y-39491646D01*
X112319708Y-38491646D02*
X112319708Y-39491646D01*
X110959708Y-39491646D02*
X110959708Y-38491646D01*
X112480000Y-50357029D02*
X112480000Y-51357029D01*
X111120000Y-51357029D02*
X111120000Y-50357029D01*
X108959708Y-43841646D02*
X108959708Y-42841646D01*
X110319708Y-42841646D02*
X110319708Y-43841646D01*
X108720000Y-51357029D02*
X108720000Y-50357029D01*
X110080000Y-50357029D02*
X110080000Y-51357029D01*
X99580000Y-33150000D02*
X99580000Y-34150000D01*
X98220000Y-34150000D02*
X98220000Y-33150000D01*
X116365219Y-33323175D02*
X116365219Y-34323175D01*
X115005219Y-34323175D02*
X115005219Y-33323175D01*
X118365219Y-33323175D02*
X118365219Y-34323175D01*
X117005219Y-34323175D02*
X117005219Y-33323175D01*
X116670000Y-51270000D02*
X116670000Y-89430000D01*
X116670000Y-89430000D02*
X119330000Y-89430000D01*
X119330000Y-89430000D02*
X119330000Y-51270000D01*
X119330000Y-51270000D02*
X116670000Y-51270000D01*
X116670000Y-50000000D02*
X116670000Y-48670000D01*
X116670000Y-48670000D02*
X118000000Y-48670000D01*
X80670000Y-51270000D02*
X80670000Y-89430000D01*
X80670000Y-89430000D02*
X83330000Y-89430000D01*
X83330000Y-89430000D02*
X83330000Y-51270000D01*
X83330000Y-51270000D02*
X80670000Y-51270000D01*
X80670000Y-50000000D02*
X80670000Y-48670000D01*
X80670000Y-48670000D02*
X82000000Y-48670000D01*
X93265000Y-66410000D02*
X90585000Y-66410000D01*
X84885000Y-66410000D02*
X87565000Y-66410000D01*
X85645000Y-74790000D02*
X87565000Y-74790000D01*
X92505000Y-74790000D02*
X90585000Y-74790000D01*
X93265000Y-66410000D02*
X93265000Y-74030000D01*
X93265000Y-74030000D02*
X92505000Y-74790000D01*
X85645000Y-74790000D02*
X84885000Y-74030000D01*
X84885000Y-74030000D02*
X84885000Y-66410000D01*
D16*
G36*
X108385760Y-56791965D02*
X108643622Y-56822665D01*
X108883424Y-56873493D01*
X109107939Y-56945536D01*
X109319939Y-57039881D01*
X109522196Y-57157616D01*
X109717483Y-57299828D01*
X109751558Y-57327652D01*
X109930716Y-57493703D01*
X110091048Y-57679088D01*
X110232935Y-57884440D01*
X110356754Y-58110389D01*
X110462884Y-58357569D01*
X110551704Y-58626613D01*
X110570551Y-58694746D01*
X110587028Y-58758178D01*
X110599836Y-58810776D01*
X110607709Y-58847094D01*
X110609381Y-58861688D01*
X110609366Y-58861703D01*
X110594789Y-58863411D01*
X110554790Y-58866720D01*
X110492114Y-58871435D01*
X110409502Y-58877364D01*
X110309700Y-58884312D01*
X110195449Y-58892087D01*
X110069494Y-58900494D01*
X109934579Y-58909341D01*
X109927389Y-58909808D01*
X109789127Y-58918855D01*
X109657249Y-58927615D01*
X109534886Y-58935871D01*
X109425166Y-58943405D01*
X109331221Y-58950001D01*
X109256179Y-58955441D01*
X109203169Y-58959508D01*
X109175922Y-58961920D01*
X109131480Y-58965342D01*
X109107200Y-58962030D01*
X109095487Y-58950371D01*
X109093055Y-58944328D01*
X109023454Y-58770747D01*
X108940049Y-58618177D01*
X108843841Y-58487905D01*
X108735829Y-58381222D01*
X108617013Y-58299416D01*
X108576591Y-58278568D01*
X108485259Y-58238396D01*
X108403647Y-58211165D01*
X108321897Y-58194772D01*
X108230152Y-58187111D01*
X108142334Y-58185860D01*
X107971067Y-58198691D01*
X107814263Y-58235579D01*
X107670757Y-58297080D01*
X107539383Y-58383751D01*
X107418977Y-58496148D01*
X107367508Y-58555954D01*
X107277874Y-58688750D01*
X107209112Y-58836671D01*
X107161513Y-58995533D01*
X107135363Y-59161154D01*
X107130954Y-59329349D01*
X107148574Y-59495935D01*
X107188512Y-59656729D01*
X107251056Y-59807547D01*
X107277667Y-59856056D01*
X107330976Y-59933390D01*
X107400709Y-60015259D01*
X107479089Y-60093720D01*
X107558337Y-60160833D01*
X107613302Y-60198725D01*
X107750034Y-60265808D01*
X107898538Y-60310696D01*
X108054180Y-60333537D01*
X108212323Y-60334483D01*
X108368334Y-60313683D01*
X108517575Y-60271286D01*
X108655413Y-60207443D01*
X108725331Y-60162780D01*
X108837058Y-60067930D01*
X108931059Y-59954881D01*
X109008205Y-59822112D01*
X109069367Y-59668104D01*
X109115414Y-59491336D01*
X109118544Y-59475797D01*
X109149986Y-59316437D01*
X109552799Y-59325723D01*
X109680443Y-59328726D01*
X109820381Y-59332122D01*
X109963817Y-59335691D01*
X110101956Y-59339212D01*
X110226002Y-59342465D01*
X110290564Y-59344211D01*
X110625517Y-59353415D01*
X110617307Y-59411180D01*
X110599478Y-59519603D01*
X110575254Y-59642701D01*
X110546736Y-59771328D01*
X110516023Y-59896337D01*
X110485216Y-60008582D01*
X110465639Y-60071872D01*
X110368016Y-60329622D01*
X110251540Y-60567234D01*
X110116544Y-60784304D01*
X109963362Y-60980430D01*
X109792326Y-61155206D01*
X109603770Y-61308230D01*
X109398026Y-61439097D01*
X109292389Y-61494351D01*
X109081032Y-61584149D01*
X108856187Y-61653070D01*
X108614808Y-61701967D01*
X108488056Y-61719048D01*
X108399013Y-61726276D01*
X108290824Y-61730496D01*
X108171781Y-61731787D01*
X108050178Y-61730226D01*
X107934309Y-61725890D01*
X107832466Y-61718857D01*
X107774139Y-61712393D01*
X107520862Y-61666561D01*
X107285184Y-61599958D01*
X107064391Y-61511238D01*
X106855774Y-61399052D01*
X106656620Y-61262056D01*
X106464218Y-61098900D01*
X106384551Y-61022031D01*
X106224509Y-60849762D01*
X106089365Y-60676606D01*
X105976071Y-60497744D01*
X105881578Y-60308355D01*
X105802838Y-60103617D01*
X105801818Y-60100576D01*
X105738205Y-59869344D01*
X105696813Y-59625626D01*
X105677628Y-59374318D01*
X105680635Y-59120313D01*
X105705820Y-58868506D01*
X105753168Y-58623791D01*
X105806838Y-58436879D01*
X105897678Y-58208503D01*
X106014963Y-57988461D01*
X106157792Y-57778122D01*
X106325261Y-57578856D01*
X106465701Y-57438230D01*
X106665893Y-57270474D01*
X106880272Y-57126773D01*
X107107615Y-57007537D01*
X107346698Y-56913181D01*
X107596295Y-56844115D01*
X107855184Y-56800751D01*
X108122139Y-56783503D01*
X108385760Y-56791965D01*
X108385760Y-56791965D01*
G37*
X108385760Y-56791965D02*
X108643622Y-56822665D01*
X108883424Y-56873493D01*
X109107939Y-56945536D01*
X109319939Y-57039881D01*
X109522196Y-57157616D01*
X109717483Y-57299828D01*
X109751558Y-57327652D01*
X109930716Y-57493703D01*
X110091048Y-57679088D01*
X110232935Y-57884440D01*
X110356754Y-58110389D01*
X110462884Y-58357569D01*
X110551704Y-58626613D01*
X110570551Y-58694746D01*
X110587028Y-58758178D01*
X110599836Y-58810776D01*
X110607709Y-58847094D01*
X110609381Y-58861688D01*
X110609366Y-58861703D01*
X110594789Y-58863411D01*
X110554790Y-58866720D01*
X110492114Y-58871435D01*
X110409502Y-58877364D01*
X110309700Y-58884312D01*
X110195449Y-58892087D01*
X110069494Y-58900494D01*
X109934579Y-58909341D01*
X109927389Y-58909808D01*
X109789127Y-58918855D01*
X109657249Y-58927615D01*
X109534886Y-58935871D01*
X109425166Y-58943405D01*
X109331221Y-58950001D01*
X109256179Y-58955441D01*
X109203169Y-58959508D01*
X109175922Y-58961920D01*
X109131480Y-58965342D01*
X109107200Y-58962030D01*
X109095487Y-58950371D01*
X109093055Y-58944328D01*
X109023454Y-58770747D01*
X108940049Y-58618177D01*
X108843841Y-58487905D01*
X108735829Y-58381222D01*
X108617013Y-58299416D01*
X108576591Y-58278568D01*
X108485259Y-58238396D01*
X108403647Y-58211165D01*
X108321897Y-58194772D01*
X108230152Y-58187111D01*
X108142334Y-58185860D01*
X107971067Y-58198691D01*
X107814263Y-58235579D01*
X107670757Y-58297080D01*
X107539383Y-58383751D01*
X107418977Y-58496148D01*
X107367508Y-58555954D01*
X107277874Y-58688750D01*
X107209112Y-58836671D01*
X107161513Y-58995533D01*
X107135363Y-59161154D01*
X107130954Y-59329349D01*
X107148574Y-59495935D01*
X107188512Y-59656729D01*
X107251056Y-59807547D01*
X107277667Y-59856056D01*
X107330976Y-59933390D01*
X107400709Y-60015259D01*
X107479089Y-60093720D01*
X107558337Y-60160833D01*
X107613302Y-60198725D01*
X107750034Y-60265808D01*
X107898538Y-60310696D01*
X108054180Y-60333537D01*
X108212323Y-60334483D01*
X108368334Y-60313683D01*
X108517575Y-60271286D01*
X108655413Y-60207443D01*
X108725331Y-60162780D01*
X108837058Y-60067930D01*
X108931059Y-59954881D01*
X109008205Y-59822112D01*
X109069367Y-59668104D01*
X109115414Y-59491336D01*
X109118544Y-59475797D01*
X109149986Y-59316437D01*
X109552799Y-59325723D01*
X109680443Y-59328726D01*
X109820381Y-59332122D01*
X109963817Y-59335691D01*
X110101956Y-59339212D01*
X110226002Y-59342465D01*
X110290564Y-59344211D01*
X110625517Y-59353415D01*
X110617307Y-59411180D01*
X110599478Y-59519603D01*
X110575254Y-59642701D01*
X110546736Y-59771328D01*
X110516023Y-59896337D01*
X110485216Y-60008582D01*
X110465639Y-60071872D01*
X110368016Y-60329622D01*
X110251540Y-60567234D01*
X110116544Y-60784304D01*
X109963362Y-60980430D01*
X109792326Y-61155206D01*
X109603770Y-61308230D01*
X109398026Y-61439097D01*
X109292389Y-61494351D01*
X109081032Y-61584149D01*
X108856187Y-61653070D01*
X108614808Y-61701967D01*
X108488056Y-61719048D01*
X108399013Y-61726276D01*
X108290824Y-61730496D01*
X108171781Y-61731787D01*
X108050178Y-61730226D01*
X107934309Y-61725890D01*
X107832466Y-61718857D01*
X107774139Y-61712393D01*
X107520862Y-61666561D01*
X107285184Y-61599958D01*
X107064391Y-61511238D01*
X106855774Y-61399052D01*
X106656620Y-61262056D01*
X106464218Y-61098900D01*
X106384551Y-61022031D01*
X106224509Y-60849762D01*
X106089365Y-60676606D01*
X105976071Y-60497744D01*
X105881578Y-60308355D01*
X105802838Y-60103617D01*
X105801818Y-60100576D01*
X105738205Y-59869344D01*
X105696813Y-59625626D01*
X105677628Y-59374318D01*
X105680635Y-59120313D01*
X105705820Y-58868506D01*
X105753168Y-58623791D01*
X105806838Y-58436879D01*
X105897678Y-58208503D01*
X106014963Y-57988461D01*
X106157792Y-57778122D01*
X106325261Y-57578856D01*
X106465701Y-57438230D01*
X106665893Y-57270474D01*
X106880272Y-57126773D01*
X107107615Y-57007537D01*
X107346698Y-56913181D01*
X107596295Y-56844115D01*
X107855184Y-56800751D01*
X108122139Y-56783503D01*
X108385760Y-56791965D01*
G36*
X102780112Y-58290667D02*
X101707667Y-58290667D01*
X101707667Y-61635000D01*
X100296556Y-61635000D01*
X100296556Y-58290667D01*
X99224112Y-58290667D01*
X99224112Y-56921889D01*
X102780112Y-56921889D01*
X102780112Y-58290667D01*
X102780112Y-58290667D01*
G37*
X102780112Y-58290667D02*
X101707667Y-58290667D01*
X101707667Y-61635000D01*
X100296556Y-61635000D01*
X100296556Y-58290667D01*
X99224112Y-58290667D01*
X99224112Y-56921889D01*
X102780112Y-56921889D01*
X102780112Y-58290667D01*
G36*
X105594586Y-53916430D02*
X105722670Y-53917027D01*
X105839093Y-53917972D01*
X105941165Y-53919223D01*
X106026196Y-53920739D01*
X106091493Y-53922481D01*
X106134368Y-53924406D01*
X106152128Y-53926475D01*
X106152460Y-53926806D01*
X106145032Y-53940643D01*
X106123944Y-53975557D01*
X106090850Y-54028916D01*
X106047404Y-54098091D01*
X105995259Y-54180451D01*
X105936069Y-54273366D01*
X105871488Y-54374205D01*
X105857486Y-54396000D01*
X105801072Y-54483874D01*
X105731468Y-54592464D01*
X105650646Y-54718682D01*
X105560582Y-54859443D01*
X105463248Y-55011658D01*
X105360617Y-55172241D01*
X105254663Y-55338105D01*
X105147360Y-55506163D01*
X105040681Y-55673329D01*
X104947526Y-55819377D01*
X104332334Y-56784143D01*
X104332334Y-59209572D01*
X104332297Y-59526992D01*
X104332183Y-59817250D01*
X104331983Y-60081403D01*
X104331689Y-60320510D01*
X104331294Y-60535632D01*
X104330790Y-60727825D01*
X104330170Y-60898150D01*
X104329425Y-61047665D01*
X104328549Y-61177430D01*
X104327533Y-61288502D01*
X104326369Y-61381942D01*
X104325050Y-61458807D01*
X104323569Y-61520158D01*
X104321916Y-61567052D01*
X104320086Y-61600548D01*
X104318070Y-61621707D01*
X104315860Y-61631585D01*
X104314695Y-61632628D01*
X104289968Y-61629886D01*
X104250858Y-61626071D01*
X104240612Y-61625128D01*
X104153555Y-61613833D01*
X104051916Y-61595366D01*
X103947637Y-61572195D01*
X103852657Y-61546794D01*
X103833167Y-61540827D01*
X103649156Y-61469741D01*
X103485417Y-61379072D01*
X103342158Y-61269080D01*
X103219584Y-61140027D01*
X103117901Y-60992172D01*
X103037315Y-60825778D01*
X102978031Y-60641104D01*
X102940256Y-60438412D01*
X102936225Y-60404362D01*
X102933669Y-60365956D01*
X102931336Y-60299740D01*
X102929231Y-60206127D01*
X102927357Y-60085527D01*
X102925718Y-59938352D01*
X102924315Y-59765014D01*
X102923154Y-59565925D01*
X102922237Y-59341497D01*
X102921567Y-59092140D01*
X102921149Y-58818267D01*
X102920985Y-58527584D01*
X102920748Y-56787834D01*
X102244742Y-55729500D01*
X102084830Y-55479115D01*
X101939535Y-55251541D01*
X101808249Y-55045823D01*
X101690369Y-54861007D01*
X101585288Y-54696137D01*
X101492401Y-54550260D01*
X101411104Y-54422419D01*
X101340790Y-54311661D01*
X101280855Y-54217030D01*
X101230693Y-54137572D01*
X101189699Y-54072332D01*
X101157267Y-54020355D01*
X101132793Y-53980686D01*
X101115670Y-53952371D01*
X101105294Y-53934455D01*
X101101059Y-53925982D01*
X101100889Y-53925228D01*
X101114558Y-53923482D01*
X101153798Y-53921858D01*
X101215955Y-53920387D01*
X101298379Y-53919101D01*
X101398417Y-53918034D01*
X101513418Y-53917218D01*
X101640730Y-53916685D01*
X101777700Y-53916467D01*
X101817028Y-53916467D01*
X102533167Y-53916711D01*
X102746844Y-54258661D01*
X102889450Y-54486764D01*
X103017663Y-54691597D01*
X103131942Y-54873886D01*
X103232747Y-55034359D01*
X103320540Y-55173742D01*
X103395782Y-55292762D01*
X103458932Y-55392145D01*
X103510452Y-55472617D01*
X103550802Y-55534906D01*
X103580444Y-55579738D01*
X103599836Y-55607839D01*
X103609441Y-55619936D01*
X103610299Y-55620526D01*
X103619977Y-55609767D01*
X103643993Y-55577322D01*
X103681089Y-55525027D01*
X103730008Y-55454715D01*
X103789493Y-55368224D01*
X103858287Y-55267388D01*
X103935131Y-55154043D01*
X104018769Y-55030025D01*
X104107943Y-54897168D01*
X104192622Y-54770466D01*
X104762395Y-53916223D01*
X105457531Y-53916223D01*
X105594586Y-53916430D01*
X105594586Y-53916430D01*
G37*
X105594586Y-53916430D02*
X105722670Y-53917027D01*
X105839093Y-53917972D01*
X105941165Y-53919223D01*
X106026196Y-53920739D01*
X106091493Y-53922481D01*
X106134368Y-53924406D01*
X106152128Y-53926475D01*
X106152460Y-53926806D01*
X106145032Y-53940643D01*
X106123944Y-53975557D01*
X106090850Y-54028916D01*
X106047404Y-54098091D01*
X105995259Y-54180451D01*
X105936069Y-54273366D01*
X105871488Y-54374205D01*
X105857486Y-54396000D01*
X105801072Y-54483874D01*
X105731468Y-54592464D01*
X105650646Y-54718682D01*
X105560582Y-54859443D01*
X105463248Y-55011658D01*
X105360617Y-55172241D01*
X105254663Y-55338105D01*
X105147360Y-55506163D01*
X105040681Y-55673329D01*
X104947526Y-55819377D01*
X104332334Y-56784143D01*
X104332334Y-59209572D01*
X104332297Y-59526992D01*
X104332183Y-59817250D01*
X104331983Y-60081403D01*
X104331689Y-60320510D01*
X104331294Y-60535632D01*
X104330790Y-60727825D01*
X104330170Y-60898150D01*
X104329425Y-61047665D01*
X104328549Y-61177430D01*
X104327533Y-61288502D01*
X104326369Y-61381942D01*
X104325050Y-61458807D01*
X104323569Y-61520158D01*
X104321916Y-61567052D01*
X104320086Y-61600548D01*
X104318070Y-61621707D01*
X104315860Y-61631585D01*
X104314695Y-61632628D01*
X104289968Y-61629886D01*
X104250858Y-61626071D01*
X104240612Y-61625128D01*
X104153555Y-61613833D01*
X104051916Y-61595366D01*
X103947637Y-61572195D01*
X103852657Y-61546794D01*
X103833167Y-61540827D01*
X103649156Y-61469741D01*
X103485417Y-61379072D01*
X103342158Y-61269080D01*
X103219584Y-61140027D01*
X103117901Y-60992172D01*
X103037315Y-60825778D01*
X102978031Y-60641104D01*
X102940256Y-60438412D01*
X102936225Y-60404362D01*
X102933669Y-60365956D01*
X102931336Y-60299740D01*
X102929231Y-60206127D01*
X102927357Y-60085527D01*
X102925718Y-59938352D01*
X102924315Y-59765014D01*
X102923154Y-59565925D01*
X102922237Y-59341497D01*
X102921567Y-59092140D01*
X102921149Y-58818267D01*
X102920985Y-58527584D01*
X102920748Y-56787834D01*
X102244742Y-55729500D01*
X102084830Y-55479115D01*
X101939535Y-55251541D01*
X101808249Y-55045823D01*
X101690369Y-54861007D01*
X101585288Y-54696137D01*
X101492401Y-54550260D01*
X101411104Y-54422419D01*
X101340790Y-54311661D01*
X101280855Y-54217030D01*
X101230693Y-54137572D01*
X101189699Y-54072332D01*
X101157267Y-54020355D01*
X101132793Y-53980686D01*
X101115670Y-53952371D01*
X101105294Y-53934455D01*
X101101059Y-53925982D01*
X101100889Y-53925228D01*
X101114558Y-53923482D01*
X101153798Y-53921858D01*
X101215955Y-53920387D01*
X101298379Y-53919101D01*
X101398417Y-53918034D01*
X101513418Y-53917218D01*
X101640730Y-53916685D01*
X101777700Y-53916467D01*
X101817028Y-53916467D01*
X102533167Y-53916711D01*
X102746844Y-54258661D01*
X102889450Y-54486764D01*
X103017663Y-54691597D01*
X103131942Y-54873886D01*
X103232747Y-55034359D01*
X103320540Y-55173742D01*
X103395782Y-55292762D01*
X103458932Y-55392145D01*
X103510452Y-55472617D01*
X103550802Y-55534906D01*
X103580444Y-55579738D01*
X103599836Y-55607839D01*
X103609441Y-55619936D01*
X103610299Y-55620526D01*
X103619977Y-55609767D01*
X103643993Y-55577322D01*
X103681089Y-55525027D01*
X103730008Y-55454715D01*
X103789493Y-55368224D01*
X103858287Y-55267388D01*
X103935131Y-55154043D01*
X104018769Y-55030025D01*
X104107943Y-54897168D01*
X104192622Y-54770466D01*
X104762395Y-53916223D01*
X105457531Y-53916223D01*
X105594586Y-53916430D01*
G36*
X105630556Y-61635000D02*
X104473445Y-61635000D01*
X104473445Y-60266223D01*
X105630556Y-60266223D01*
X105630556Y-61635000D01*
X105630556Y-61635000D01*
G37*
X105630556Y-61635000D02*
X104473445Y-61635000D01*
X104473445Y-60266223D01*
X105630556Y-60266223D01*
X105630556Y-61635000D01*
G36*
X105531778Y-59800556D02*
X104473445Y-59800556D01*
X104473445Y-58742223D01*
X105531778Y-58742223D01*
X105531778Y-59800556D01*
X105531778Y-59800556D01*
G37*
X105531778Y-59800556D02*
X104473445Y-59800556D01*
X104473445Y-58742223D01*
X105531778Y-58742223D01*
X105531778Y-59800556D01*
G36*
X105630556Y-58290667D02*
X104473445Y-58290667D01*
X104473445Y-56921889D01*
X105630556Y-56921889D01*
X105630556Y-58290667D01*
X105630556Y-58290667D01*
G37*
X105630556Y-58290667D02*
X104473445Y-58290667D01*
X104473445Y-56921889D01*
X105630556Y-56921889D01*
X105630556Y-58290667D01*
D14*
X85552381Y-46376190D02*
X84552381Y-46376190D01*
X85457143Y-45328571D02*
X85504762Y-45376190D01*
X85552381Y-45519047D01*
X85552381Y-45614285D01*
X85504762Y-45757143D01*
X85409524Y-45852381D01*
X85314286Y-45900000D01*
X85123810Y-45947619D01*
X84980952Y-45947619D01*
X84790476Y-45900000D01*
X84695238Y-45852381D01*
X84600000Y-45757143D01*
X84552381Y-45614285D01*
X84552381Y-45519047D01*
X84600000Y-45376190D01*
X84647619Y-45328571D01*
X84552381Y-44995238D02*
X84552381Y-44376190D01*
X84933333Y-44709524D01*
X84933333Y-44566666D01*
X84980952Y-44471428D01*
X85028571Y-44423809D01*
X85123810Y-44376190D01*
X85361905Y-44376190D01*
X85457143Y-44423809D01*
X85504762Y-44471428D01*
X85552381Y-44566666D01*
X85552381Y-44852381D01*
X85504762Y-44947619D01*
X85457143Y-44995238D01*
X97557143Y-51066666D02*
X97604762Y-51114285D01*
X97652381Y-51257142D01*
X97652381Y-51352380D01*
X97604762Y-51495238D01*
X97509524Y-51590476D01*
X97414286Y-51638095D01*
X97223810Y-51685714D01*
X97080952Y-51685714D01*
X96890476Y-51638095D01*
X96795238Y-51590476D01*
X96700000Y-51495238D01*
X96652381Y-51352380D01*
X96652381Y-51257142D01*
X96700000Y-51114285D01*
X96747619Y-51066666D01*
X97652381Y-50114285D02*
X97652381Y-50685714D01*
X97652381Y-50400000D02*
X96652381Y-50400000D01*
X96795238Y-50495238D01*
X96890476Y-50590476D01*
X96938095Y-50685714D01*
X90533334Y-88532143D02*
X90485715Y-88579762D01*
X90342858Y-88627381D01*
X90247620Y-88627381D01*
X90104762Y-88579762D01*
X90009524Y-88484524D01*
X89961905Y-88389286D01*
X89914286Y-88198810D01*
X89914286Y-88055952D01*
X89961905Y-87865476D01*
X90009524Y-87770238D01*
X90104762Y-87675000D01*
X90247620Y-87627381D01*
X90342858Y-87627381D01*
X90485715Y-87675000D01*
X90533334Y-87722619D01*
X90914286Y-87722619D02*
X90961905Y-87675000D01*
X91057143Y-87627381D01*
X91295239Y-87627381D01*
X91390477Y-87675000D01*
X91438096Y-87722619D01*
X91485715Y-87817857D01*
X91485715Y-87913095D01*
X91438096Y-88055952D01*
X90866667Y-88627381D01*
X91485715Y-88627381D01*
X105857143Y-71666666D02*
X105904762Y-71714285D01*
X105952381Y-71857142D01*
X105952381Y-71952380D01*
X105904762Y-72095238D01*
X105809524Y-72190476D01*
X105714286Y-72238095D01*
X105523810Y-72285714D01*
X105380952Y-72285714D01*
X105190476Y-72238095D01*
X105095238Y-72190476D01*
X105000000Y-72095238D01*
X104952381Y-71952380D01*
X104952381Y-71857142D01*
X105000000Y-71714285D01*
X105047619Y-71666666D01*
X104952381Y-71333333D02*
X104952381Y-70714285D01*
X105333333Y-71047619D01*
X105333333Y-70904761D01*
X105380952Y-70809523D01*
X105428571Y-70761904D01*
X105523810Y-70714285D01*
X105761905Y-70714285D01*
X105857143Y-70761904D01*
X105904762Y-70809523D01*
X105952381Y-70904761D01*
X105952381Y-71190476D01*
X105904762Y-71285714D01*
X105857143Y-71333333D01*
X114571429Y-75910952D02*
X114571429Y-75149047D01*
X114952381Y-75529999D02*
X114190476Y-75529999D01*
X109008334Y-88157143D02*
X108960715Y-88204762D01*
X108817858Y-88252381D01*
X108722620Y-88252381D01*
X108579762Y-88204762D01*
X108484524Y-88109524D01*
X108436905Y-88014286D01*
X108389286Y-87823810D01*
X108389286Y-87680952D01*
X108436905Y-87490476D01*
X108484524Y-87395238D01*
X108579762Y-87300000D01*
X108722620Y-87252381D01*
X108817858Y-87252381D01*
X108960715Y-87300000D01*
X109008334Y-87347619D01*
X109865477Y-87585714D02*
X109865477Y-88252381D01*
X109627381Y-87204762D02*
X109389286Y-87919048D01*
X110008334Y-87919048D01*
X97557143Y-41666666D02*
X97604762Y-41714285D01*
X97652381Y-41857142D01*
X97652381Y-41952380D01*
X97604762Y-42095238D01*
X97509524Y-42190476D01*
X97414286Y-42238095D01*
X97223810Y-42285714D01*
X97080952Y-42285714D01*
X96890476Y-42238095D01*
X96795238Y-42190476D01*
X96700000Y-42095238D01*
X96652381Y-41952380D01*
X96652381Y-41857142D01*
X96700000Y-41714285D01*
X96747619Y-41666666D01*
X96652381Y-40809523D02*
X96652381Y-41000000D01*
X96700000Y-41095238D01*
X96747619Y-41142857D01*
X96890476Y-41238095D01*
X97080952Y-41285714D01*
X97461905Y-41285714D01*
X97557143Y-41238095D01*
X97604762Y-41190476D01*
X97652381Y-41095238D01*
X97652381Y-40904761D01*
X97604762Y-40809523D01*
X97557143Y-40761904D01*
X97461905Y-40714285D01*
X97223810Y-40714285D01*
X97128571Y-40761904D01*
X97080952Y-40809523D01*
X97033333Y-40904761D01*
X97033333Y-41095238D01*
X97080952Y-41190476D01*
X97128571Y-41238095D01*
X97223810Y-41285714D01*
X99607143Y-30746666D02*
X99654762Y-30794285D01*
X99702381Y-30937142D01*
X99702381Y-31032380D01*
X99654762Y-31175238D01*
X99559524Y-31270476D01*
X99464286Y-31318095D01*
X99273810Y-31365714D01*
X99130952Y-31365714D01*
X98940476Y-31318095D01*
X98845238Y-31270476D01*
X98750000Y-31175238D01*
X98702381Y-31032380D01*
X98702381Y-30937142D01*
X98750000Y-30794285D01*
X98797619Y-30746666D01*
X98702381Y-30413333D02*
X98702381Y-29746666D01*
X99702381Y-30175238D01*
X97557143Y-56466666D02*
X97604762Y-56514285D01*
X97652381Y-56657142D01*
X97652381Y-56752380D01*
X97604762Y-56895238D01*
X97509524Y-56990476D01*
X97414286Y-57038095D01*
X97223810Y-57085714D01*
X97080952Y-57085714D01*
X96890476Y-57038095D01*
X96795238Y-56990476D01*
X96700000Y-56895238D01*
X96652381Y-56752380D01*
X96652381Y-56657142D01*
X96700000Y-56514285D01*
X96747619Y-56466666D01*
X97080952Y-55895238D02*
X97033333Y-55990476D01*
X96985714Y-56038095D01*
X96890476Y-56085714D01*
X96842857Y-56085714D01*
X96747619Y-56038095D01*
X96700000Y-55990476D01*
X96652381Y-55895238D01*
X96652381Y-55704761D01*
X96700000Y-55609523D01*
X96747619Y-55561904D01*
X96842857Y-55514285D01*
X96890476Y-55514285D01*
X96985714Y-55561904D01*
X97033333Y-55609523D01*
X97080952Y-55704761D01*
X97080952Y-55895238D01*
X97128571Y-55990476D01*
X97176190Y-56038095D01*
X97271429Y-56085714D01*
X97461905Y-56085714D01*
X97557143Y-56038095D01*
X97604762Y-55990476D01*
X97652381Y-55895238D01*
X97652381Y-55704761D01*
X97604762Y-55609523D01*
X97557143Y-55561904D01*
X97461905Y-55514285D01*
X97271429Y-55514285D01*
X97176190Y-55561904D01*
X97128571Y-55609523D01*
X97080952Y-55704761D01*
X101357143Y-40166666D02*
X101404762Y-40214285D01*
X101452381Y-40357142D01*
X101452381Y-40452380D01*
X101404762Y-40595238D01*
X101309524Y-40690476D01*
X101214286Y-40738095D01*
X101023810Y-40785714D01*
X100880952Y-40785714D01*
X100690476Y-40738095D01*
X100595238Y-40690476D01*
X100500000Y-40595238D01*
X100452381Y-40452380D01*
X100452381Y-40357142D01*
X100500000Y-40214285D01*
X100547619Y-40166666D01*
X101452381Y-39690476D02*
X101452381Y-39500000D01*
X101404762Y-39404761D01*
X101357143Y-39357142D01*
X101214286Y-39261904D01*
X101023810Y-39214285D01*
X100642857Y-39214285D01*
X100547619Y-39261904D01*
X100500000Y-39309523D01*
X100452381Y-39404761D01*
X100452381Y-39595238D01*
X100500000Y-39690476D01*
X100547619Y-39738095D01*
X100642857Y-39785714D01*
X100880952Y-39785714D01*
X100976190Y-39738095D01*
X101023810Y-39690476D01*
X101071429Y-39595238D01*
X101071429Y-39404761D01*
X101023810Y-39309523D01*
X100976190Y-39261904D01*
X100880952Y-39214285D01*
X103061429Y-38600952D02*
X103061429Y-37839047D01*
X103442381Y-38219999D02*
X102680476Y-38219999D01*
X111996851Y-47234503D02*
X112044470Y-47282122D01*
X112092089Y-47424979D01*
X112092089Y-47520217D01*
X112044470Y-47663075D01*
X111949232Y-47758313D01*
X111853994Y-47805932D01*
X111663518Y-47853551D01*
X111520660Y-47853551D01*
X111330184Y-47805932D01*
X111234946Y-47758313D01*
X111139708Y-47663075D01*
X111092089Y-47520217D01*
X111092089Y-47424979D01*
X111139708Y-47282122D01*
X111187327Y-47234503D01*
X112092089Y-46282122D02*
X112092089Y-46853551D01*
X112092089Y-46567837D02*
X111092089Y-46567837D01*
X111234946Y-46663075D01*
X111330184Y-46758313D01*
X111377803Y-46853551D01*
X111092089Y-45663075D02*
X111092089Y-45567836D01*
X111139708Y-45472598D01*
X111187327Y-45424979D01*
X111282565Y-45377360D01*
X111473041Y-45329741D01*
X111711137Y-45329741D01*
X111901613Y-45377360D01*
X111996851Y-45424979D01*
X112044470Y-45472598D01*
X112092089Y-45567836D01*
X112092089Y-45663075D01*
X112044470Y-45758313D01*
X111996851Y-45805932D01*
X111901613Y-45853551D01*
X111711137Y-45901170D01*
X111473041Y-45901170D01*
X111282565Y-45853551D01*
X111187327Y-45805932D01*
X111139708Y-45758313D01*
X111092089Y-45663075D01*
X101257143Y-37372857D02*
X101304762Y-37420476D01*
X101352381Y-37563333D01*
X101352381Y-37658571D01*
X101304762Y-37801429D01*
X101209524Y-37896667D01*
X101114286Y-37944286D01*
X100923810Y-37991905D01*
X100780952Y-37991905D01*
X100590476Y-37944286D01*
X100495238Y-37896667D01*
X100400000Y-37801429D01*
X100352381Y-37658571D01*
X100352381Y-37563333D01*
X100400000Y-37420476D01*
X100447619Y-37372857D01*
X101352381Y-36420476D02*
X101352381Y-36991905D01*
X101352381Y-36706191D02*
X100352381Y-36706191D01*
X100495238Y-36801429D01*
X100590476Y-36896667D01*
X100638095Y-36991905D01*
X101352381Y-35468095D02*
X101352381Y-36039524D01*
X101352381Y-35753810D02*
X100352381Y-35753810D01*
X100495238Y-35849048D01*
X100590476Y-35944286D01*
X100638095Y-36039524D01*
X85252381Y-38576190D02*
X84252381Y-38576190D01*
X85157143Y-37528571D02*
X85204762Y-37576190D01*
X85252381Y-37719047D01*
X85252381Y-37814285D01*
X85204762Y-37957143D01*
X85109524Y-38052381D01*
X85014286Y-38100000D01*
X84823810Y-38147619D01*
X84680952Y-38147619D01*
X84490476Y-38100000D01*
X84395238Y-38052381D01*
X84300000Y-37957143D01*
X84252381Y-37814285D01*
X84252381Y-37719047D01*
X84300000Y-37576190D01*
X84347619Y-37528571D01*
X85252381Y-36576190D02*
X85252381Y-37147619D01*
X85252381Y-36861905D02*
X84252381Y-36861905D01*
X84395238Y-36957143D01*
X84490476Y-37052381D01*
X84538095Y-37147619D01*
X85223810Y-86727381D02*
X85223810Y-85727381D01*
X86271429Y-86632143D02*
X86223810Y-86679762D01*
X86080953Y-86727381D01*
X85985715Y-86727381D01*
X85842857Y-86679762D01*
X85747619Y-86584524D01*
X85700000Y-86489286D01*
X85652381Y-86298810D01*
X85652381Y-86155952D01*
X85700000Y-85965476D01*
X85747619Y-85870238D01*
X85842857Y-85775000D01*
X85985715Y-85727381D01*
X86080953Y-85727381D01*
X86223810Y-85775000D01*
X86271429Y-85822619D01*
X86652381Y-85822619D02*
X86700000Y-85775000D01*
X86795238Y-85727381D01*
X87033334Y-85727381D01*
X87128572Y-85775000D01*
X87176191Y-85822619D01*
X87223810Y-85917857D01*
X87223810Y-86013095D01*
X87176191Y-86155952D01*
X86604762Y-86727381D01*
X87223810Y-86727381D01*
X112873810Y-86777381D02*
X112873810Y-85777381D01*
X113921429Y-86682143D02*
X113873810Y-86729762D01*
X113730953Y-86777381D01*
X113635715Y-86777381D01*
X113492857Y-86729762D01*
X113397619Y-86634524D01*
X113350000Y-86539286D01*
X113302381Y-86348810D01*
X113302381Y-86205952D01*
X113350000Y-86015476D01*
X113397619Y-85920238D01*
X113492857Y-85825000D01*
X113635715Y-85777381D01*
X113730953Y-85777381D01*
X113873810Y-85825000D01*
X113921429Y-85872619D01*
X114778572Y-86110714D02*
X114778572Y-86777381D01*
X114540476Y-85729762D02*
X114302381Y-86444048D01*
X114921429Y-86444048D01*
X88752381Y-28976190D02*
X87752381Y-28976190D01*
X88657143Y-27928571D02*
X88704762Y-27976190D01*
X88752381Y-28119047D01*
X88752381Y-28214285D01*
X88704762Y-28357143D01*
X88609524Y-28452381D01*
X88514286Y-28500000D01*
X88323810Y-28547619D01*
X88180952Y-28547619D01*
X87990476Y-28500000D01*
X87895238Y-28452381D01*
X87800000Y-28357143D01*
X87752381Y-28214285D01*
X87752381Y-28119047D01*
X87800000Y-27976190D01*
X87847619Y-27928571D01*
X87752381Y-27023809D02*
X87752381Y-27500000D01*
X88228571Y-27547619D01*
X88180952Y-27500000D01*
X88133333Y-27404762D01*
X88133333Y-27166666D01*
X88180952Y-27071428D01*
X88228571Y-27023809D01*
X88323810Y-26976190D01*
X88561905Y-26976190D01*
X88657143Y-27023809D01*
X88704762Y-27071428D01*
X88752381Y-27166666D01*
X88752381Y-27404762D01*
X88704762Y-27500000D01*
X88657143Y-27547619D01*
X85452381Y-58976190D02*
X84452381Y-58976190D01*
X85357143Y-57928571D02*
X85404762Y-57976190D01*
X85452381Y-58119047D01*
X85452381Y-58214285D01*
X85404762Y-58357143D01*
X85309524Y-58452381D01*
X85214286Y-58500000D01*
X85023810Y-58547619D01*
X84880952Y-58547619D01*
X84690476Y-58500000D01*
X84595238Y-58452381D01*
X84500000Y-58357143D01*
X84452381Y-58214285D01*
X84452381Y-58119047D01*
X84500000Y-57976190D01*
X84547619Y-57928571D01*
X84452381Y-57071428D02*
X84452381Y-57261905D01*
X84500000Y-57357143D01*
X84547619Y-57404762D01*
X84690476Y-57500000D01*
X84880952Y-57547619D01*
X85261905Y-57547619D01*
X85357143Y-57500000D01*
X85404762Y-57452381D01*
X85452381Y-57357143D01*
X85452381Y-57166666D01*
X85404762Y-57071428D01*
X85357143Y-57023809D01*
X85261905Y-56976190D01*
X85023810Y-56976190D01*
X84928571Y-57023809D01*
X84880952Y-57071428D01*
X84833333Y-57166666D01*
X84833333Y-57357143D01*
X84880952Y-57452381D01*
X84928571Y-57500000D01*
X85023810Y-57547619D01*
X114623810Y-46552381D02*
X114623810Y-45552381D01*
X115671429Y-46457143D02*
X115623810Y-46504762D01*
X115480953Y-46552381D01*
X115385715Y-46552381D01*
X115242857Y-46504762D01*
X115147619Y-46409524D01*
X115100000Y-46314286D01*
X115052381Y-46123810D01*
X115052381Y-45980952D01*
X115100000Y-45790476D01*
X115147619Y-45695238D01*
X115242857Y-45600000D01*
X115385715Y-45552381D01*
X115480953Y-45552381D01*
X115623810Y-45600000D01*
X115671429Y-45647619D01*
X116004762Y-45552381D02*
X116671429Y-45552381D01*
X116242857Y-46552381D01*
X100747619Y-24095238D02*
X100700000Y-24190476D01*
X100604762Y-24285714D01*
X100461905Y-24428571D01*
X100414286Y-24523810D01*
X100414286Y-24619048D01*
X100652381Y-24571429D02*
X100604762Y-24666667D01*
X100509524Y-24761905D01*
X100319048Y-24809524D01*
X99985714Y-24809524D01*
X99795238Y-24761905D01*
X99700000Y-24666667D01*
X99652381Y-24571429D01*
X99652381Y-24380952D01*
X99700000Y-24285714D01*
X99795238Y-24190476D01*
X99985714Y-24142857D01*
X100319048Y-24142857D01*
X100509524Y-24190476D01*
X100604762Y-24285714D01*
X100652381Y-24380952D01*
X100652381Y-24571429D01*
X100652381Y-23190476D02*
X100652381Y-23761905D01*
X100652381Y-23476191D02*
X99652381Y-23476191D01*
X99795238Y-23571429D01*
X99890476Y-23666667D01*
X99938095Y-23761905D01*
X110447619Y-23795238D02*
X110400000Y-23890476D01*
X110304762Y-23985714D01*
X110161905Y-24128571D01*
X110114286Y-24223810D01*
X110114286Y-24319048D01*
X110352381Y-24271429D02*
X110304762Y-24366667D01*
X110209524Y-24461905D01*
X110019048Y-24509524D01*
X109685714Y-24509524D01*
X109495238Y-24461905D01*
X109400000Y-24366667D01*
X109352381Y-24271429D01*
X109352381Y-24080952D01*
X109400000Y-23985714D01*
X109495238Y-23890476D01*
X109685714Y-23842857D01*
X110019048Y-23842857D01*
X110209524Y-23890476D01*
X110304762Y-23985714D01*
X110352381Y-24080952D01*
X110352381Y-24271429D01*
X109447619Y-23461905D02*
X109400000Y-23414286D01*
X109352381Y-23319048D01*
X109352381Y-23080952D01*
X109400000Y-22985714D01*
X109447619Y-22938095D01*
X109542857Y-22890476D01*
X109638095Y-22890476D01*
X109780952Y-22938095D01*
X110352381Y-23509524D01*
X110352381Y-22890476D01*
X102547619Y-50295238D02*
X102500000Y-50390476D01*
X102404762Y-50485714D01*
X102261905Y-50628571D01*
X102214286Y-50723810D01*
X102214286Y-50819048D01*
X102452381Y-50771429D02*
X102404762Y-50866667D01*
X102309524Y-50961905D01*
X102119048Y-51009524D01*
X101785714Y-51009524D01*
X101595238Y-50961905D01*
X101500000Y-50866667D01*
X101452381Y-50771429D01*
X101452381Y-50580952D01*
X101500000Y-50485714D01*
X101595238Y-50390476D01*
X101785714Y-50342857D01*
X102119048Y-50342857D01*
X102309524Y-50390476D01*
X102404762Y-50485714D01*
X102452381Y-50580952D01*
X102452381Y-50771429D01*
X101452381Y-50009524D02*
X101452381Y-49390476D01*
X101833333Y-49723810D01*
X101833333Y-49580952D01*
X101880952Y-49485714D01*
X101928571Y-49438095D01*
X102023810Y-49390476D01*
X102261905Y-49390476D01*
X102357143Y-49438095D01*
X102404762Y-49485714D01*
X102452381Y-49580952D01*
X102452381Y-49866667D01*
X102404762Y-49961905D01*
X102357143Y-50009524D01*
X102052381Y-30766666D02*
X101576190Y-31100000D01*
X102052381Y-31338095D02*
X101052381Y-31338095D01*
X101052381Y-30957142D01*
X101100000Y-30861904D01*
X101147619Y-30814285D01*
X101242857Y-30766666D01*
X101385714Y-30766666D01*
X101480952Y-30814285D01*
X101528571Y-30861904D01*
X101576190Y-30957142D01*
X101576190Y-31338095D01*
X102052381Y-29814285D02*
X102052381Y-30385714D01*
X102052381Y-30100000D02*
X101052381Y-30100000D01*
X101195238Y-30195238D01*
X101290476Y-30290476D01*
X101338095Y-30385714D01*
X104252381Y-30766666D02*
X103776190Y-31100000D01*
X104252381Y-31338095D02*
X103252381Y-31338095D01*
X103252381Y-30957142D01*
X103300000Y-30861904D01*
X103347619Y-30814285D01*
X103442857Y-30766666D01*
X103585714Y-30766666D01*
X103680952Y-30814285D01*
X103728571Y-30861904D01*
X103776190Y-30957142D01*
X103776190Y-31338095D01*
X103347619Y-30385714D02*
X103300000Y-30338095D01*
X103252381Y-30242857D01*
X103252381Y-30004761D01*
X103300000Y-29909523D01*
X103347619Y-29861904D01*
X103442857Y-29814285D01*
X103538095Y-29814285D01*
X103680952Y-29861904D01*
X104252381Y-30433333D01*
X104252381Y-29814285D01*
X106652381Y-30766666D02*
X106176190Y-31100000D01*
X106652381Y-31338095D02*
X105652381Y-31338095D01*
X105652381Y-30957142D01*
X105700000Y-30861904D01*
X105747619Y-30814285D01*
X105842857Y-30766666D01*
X105985714Y-30766666D01*
X106080952Y-30814285D01*
X106128571Y-30861904D01*
X106176190Y-30957142D01*
X106176190Y-31338095D01*
X105652381Y-30433333D02*
X105652381Y-29814285D01*
X106033333Y-30147619D01*
X106033333Y-30004761D01*
X106080952Y-29909523D01*
X106128571Y-29861904D01*
X106223810Y-29814285D01*
X106461905Y-29814285D01*
X106557143Y-29861904D01*
X106604762Y-29909523D01*
X106652381Y-30004761D01*
X106652381Y-30290476D01*
X106604762Y-30385714D01*
X106557143Y-30433333D01*
X108852381Y-30766666D02*
X108376190Y-31100000D01*
X108852381Y-31338095D02*
X107852381Y-31338095D01*
X107852381Y-30957142D01*
X107900000Y-30861904D01*
X107947619Y-30814285D01*
X108042857Y-30766666D01*
X108185714Y-30766666D01*
X108280952Y-30814285D01*
X108328571Y-30861904D01*
X108376190Y-30957142D01*
X108376190Y-31338095D01*
X108185714Y-29909523D02*
X108852381Y-29909523D01*
X107804762Y-30147619D02*
X108519048Y-30385714D01*
X108519048Y-29766666D01*
X110092089Y-36166666D02*
X109615898Y-36500000D01*
X110092089Y-36738095D02*
X109092089Y-36738095D01*
X109092089Y-36357142D01*
X109139708Y-36261904D01*
X109187327Y-36214285D01*
X109282565Y-36166666D01*
X109425422Y-36166666D01*
X109520660Y-36214285D01*
X109568279Y-36261904D01*
X109615898Y-36357142D01*
X109615898Y-36738095D01*
X109092089Y-35261904D02*
X109092089Y-35738095D01*
X109568279Y-35785714D01*
X109520660Y-35738095D01*
X109473041Y-35642857D01*
X109473041Y-35404761D01*
X109520660Y-35309523D01*
X109568279Y-35261904D01*
X109663518Y-35214285D01*
X109901613Y-35214285D01*
X109996851Y-35261904D01*
X110044470Y-35309523D01*
X110092089Y-35404761D01*
X110092089Y-35642857D01*
X110044470Y-35738095D01*
X109996851Y-35785714D01*
X112092089Y-36166666D02*
X111615898Y-36500000D01*
X112092089Y-36738095D02*
X111092089Y-36738095D01*
X111092089Y-36357142D01*
X111139708Y-36261904D01*
X111187327Y-36214285D01*
X111282565Y-36166666D01*
X111425422Y-36166666D01*
X111520660Y-36214285D01*
X111568279Y-36261904D01*
X111615898Y-36357142D01*
X111615898Y-36738095D01*
X111092089Y-35309523D02*
X111092089Y-35500000D01*
X111139708Y-35595238D01*
X111187327Y-35642857D01*
X111330184Y-35738095D01*
X111520660Y-35785714D01*
X111901613Y-35785714D01*
X111996851Y-35738095D01*
X112044470Y-35690476D01*
X112092089Y-35595238D01*
X112092089Y-35404761D01*
X112044470Y-35309523D01*
X111996851Y-35261904D01*
X111901613Y-35214285D01*
X111663518Y-35214285D01*
X111568279Y-35261904D01*
X111520660Y-35309523D01*
X111473041Y-35404761D01*
X111473041Y-35595238D01*
X111520660Y-35690476D01*
X111568279Y-35738095D01*
X111663518Y-35785714D01*
X112252381Y-53523695D02*
X111776190Y-53857029D01*
X112252381Y-54095124D02*
X111252381Y-54095124D01*
X111252381Y-53714171D01*
X111300000Y-53618933D01*
X111347619Y-53571314D01*
X111442857Y-53523695D01*
X111585714Y-53523695D01*
X111680952Y-53571314D01*
X111728571Y-53618933D01*
X111776190Y-53714171D01*
X111776190Y-54095124D01*
X111252381Y-53190362D02*
X111252381Y-52523695D01*
X112252381Y-52952267D01*
X110092089Y-46366666D02*
X109615898Y-46700000D01*
X110092089Y-46938095D02*
X109092089Y-46938095D01*
X109092089Y-46557142D01*
X109139708Y-46461904D01*
X109187327Y-46414285D01*
X109282565Y-46366666D01*
X109425422Y-46366666D01*
X109520660Y-46414285D01*
X109568279Y-46461904D01*
X109615898Y-46557142D01*
X109615898Y-46938095D01*
X109520660Y-45795238D02*
X109473041Y-45890476D01*
X109425422Y-45938095D01*
X109330184Y-45985714D01*
X109282565Y-45985714D01*
X109187327Y-45938095D01*
X109139708Y-45890476D01*
X109092089Y-45795238D01*
X109092089Y-45604761D01*
X109139708Y-45509523D01*
X109187327Y-45461904D01*
X109282565Y-45414285D01*
X109330184Y-45414285D01*
X109425422Y-45461904D01*
X109473041Y-45509523D01*
X109520660Y-45604761D01*
X109520660Y-45795238D01*
X109568279Y-45890476D01*
X109615898Y-45938095D01*
X109711137Y-45985714D01*
X109901613Y-45985714D01*
X109996851Y-45938095D01*
X110044470Y-45890476D01*
X110092089Y-45795238D01*
X110092089Y-45604761D01*
X110044470Y-45509523D01*
X109996851Y-45461904D01*
X109901613Y-45414285D01*
X109711137Y-45414285D01*
X109615898Y-45461904D01*
X109568279Y-45509523D01*
X109520660Y-45604761D01*
X109852381Y-53523695D02*
X109376190Y-53857029D01*
X109852381Y-54095124D02*
X108852381Y-54095124D01*
X108852381Y-53714171D01*
X108900000Y-53618933D01*
X108947619Y-53571314D01*
X109042857Y-53523695D01*
X109185714Y-53523695D01*
X109280952Y-53571314D01*
X109328571Y-53618933D01*
X109376190Y-53714171D01*
X109376190Y-54095124D01*
X109852381Y-53047505D02*
X109852381Y-52857029D01*
X109804762Y-52761790D01*
X109757143Y-52714171D01*
X109614286Y-52618933D01*
X109423810Y-52571314D01*
X109042857Y-52571314D01*
X108947619Y-52618933D01*
X108900000Y-52666552D01*
X108852381Y-52761790D01*
X108852381Y-52952267D01*
X108900000Y-53047505D01*
X108947619Y-53095124D01*
X109042857Y-53142743D01*
X109280952Y-53142743D01*
X109376190Y-53095124D01*
X109423810Y-53047505D01*
X109471429Y-52952267D01*
X109471429Y-52761790D01*
X109423810Y-52666552D01*
X109376190Y-52618933D01*
X109280952Y-52571314D01*
X99362381Y-37412857D02*
X98886190Y-37746191D01*
X99362381Y-37984286D02*
X98362381Y-37984286D01*
X98362381Y-37603333D01*
X98410000Y-37508095D01*
X98457619Y-37460476D01*
X98552857Y-37412857D01*
X98695714Y-37412857D01*
X98790952Y-37460476D01*
X98838571Y-37508095D01*
X98886190Y-37603333D01*
X98886190Y-37984286D01*
X99362381Y-36460476D02*
X99362381Y-37031905D01*
X99362381Y-36746191D02*
X98362381Y-36746191D01*
X98505238Y-36841429D01*
X98600476Y-36936667D01*
X98648095Y-37031905D01*
X98362381Y-35841429D02*
X98362381Y-35746190D01*
X98410000Y-35650952D01*
X98457619Y-35603333D01*
X98552857Y-35555714D01*
X98743333Y-35508095D01*
X98981429Y-35508095D01*
X99171905Y-35555714D01*
X99267143Y-35603333D01*
X99314762Y-35650952D01*
X99362381Y-35746190D01*
X99362381Y-35841429D01*
X99314762Y-35936667D01*
X99267143Y-35984286D01*
X99171905Y-36031905D01*
X98981429Y-36079524D01*
X98743333Y-36079524D01*
X98552857Y-36031905D01*
X98457619Y-35984286D01*
X98410000Y-35936667D01*
X98362381Y-35841429D01*
X116019573Y-31266032D02*
X115543382Y-31599366D01*
X116019573Y-31837461D02*
X115019573Y-31837461D01*
X115019573Y-31456508D01*
X115067192Y-31361270D01*
X115114811Y-31313651D01*
X115210049Y-31266032D01*
X115352906Y-31266032D01*
X115448144Y-31313651D01*
X115495763Y-31361270D01*
X115543382Y-31456508D01*
X115543382Y-31837461D01*
X116019573Y-30313651D02*
X116019573Y-30885080D01*
X116019573Y-30599366D02*
X115019573Y-30599366D01*
X115162430Y-30694604D01*
X115257668Y-30789842D01*
X115305287Y-30885080D01*
X116019573Y-29361270D02*
X116019573Y-29932699D01*
X116019573Y-29646985D02*
X115019573Y-29646985D01*
X115162430Y-29742223D01*
X115257668Y-29837461D01*
X115305287Y-29932699D01*
X118019573Y-31266032D02*
X117543382Y-31599366D01*
X118019573Y-31837461D02*
X117019573Y-31837461D01*
X117019573Y-31456508D01*
X117067192Y-31361270D01*
X117114811Y-31313651D01*
X117210049Y-31266032D01*
X117352906Y-31266032D01*
X117448144Y-31313651D01*
X117495763Y-31361270D01*
X117543382Y-31456508D01*
X117543382Y-31837461D01*
X118019573Y-30313651D02*
X118019573Y-30885080D01*
X118019573Y-30599366D02*
X117019573Y-30599366D01*
X117162430Y-30694604D01*
X117257668Y-30789842D01*
X117305287Y-30885080D01*
X117114811Y-29932699D02*
X117067192Y-29885080D01*
X117019573Y-29789842D01*
X117019573Y-29551746D01*
X117067192Y-29456508D01*
X117114811Y-29408889D01*
X117210049Y-29361270D01*
X117305287Y-29361270D01*
X117448144Y-29408889D01*
X118019573Y-29980318D01*
X118019573Y-29361270D01*
X117666667Y-46652381D02*
X117666667Y-47366667D01*
X117619047Y-47509524D01*
X117523809Y-47604762D01*
X117380952Y-47652381D01*
X117285714Y-47652381D01*
X118666667Y-47652381D02*
X118095238Y-47652381D01*
X118380952Y-47652381D02*
X118380952Y-46652381D01*
X118285714Y-46795238D01*
X118190476Y-46890476D01*
X118095238Y-46938095D01*
X81666667Y-46652381D02*
X81666667Y-47366667D01*
X81619047Y-47509524D01*
X81523809Y-47604762D01*
X81380952Y-47652381D01*
X81285714Y-47652381D01*
X82095238Y-46747619D02*
X82142857Y-46700000D01*
X82238095Y-46652381D01*
X82476191Y-46652381D01*
X82571429Y-46700000D01*
X82619048Y-46747619D01*
X82666667Y-46842857D01*
X82666667Y-46938095D01*
X82619048Y-47080952D01*
X82047619Y-47652381D01*
X82666667Y-47652381D01*
X94557143Y-71566666D02*
X94604762Y-71614285D01*
X94652381Y-71757142D01*
X94652381Y-71852380D01*
X94604762Y-71995238D01*
X94509524Y-72090476D01*
X94414286Y-72138095D01*
X94223810Y-72185714D01*
X94080952Y-72185714D01*
X93890476Y-72138095D01*
X93795238Y-72090476D01*
X93700000Y-71995238D01*
X93652381Y-71852380D01*
X93652381Y-71757142D01*
X93700000Y-71614285D01*
X93747619Y-71566666D01*
X93652381Y-70661904D02*
X93652381Y-71138095D01*
X94128571Y-71185714D01*
X94080952Y-71138095D01*
X94033333Y-71042857D01*
X94033333Y-70804761D01*
X94080952Y-70709523D01*
X94128571Y-70661904D01*
X94223810Y-70614285D01*
X94461905Y-70614285D01*
X94557143Y-70661904D01*
X94604762Y-70709523D01*
X94652381Y-70804761D01*
X94652381Y-71042857D01*
X94604762Y-71138095D01*
X94557143Y-71185714D01*
X93046429Y-75760952D02*
X93046429Y-74999047D01*
X93427381Y-75379999D02*
X92665476Y-75379999D01*
M02*
