G04 #@! TF.FileFunction,Copper,L2,Bot,Signal*
%FSLAX46Y46*%
G04 Gerber Fmt 4.6, Leading zero omitted, Abs format (unit mm)*
G04 Created by KiCad (PCBNEW 4.0.6) date 03/31/18 20:17:10*
%MOMM*%
%LPD*%
G01*
G04 APERTURE LIST*
%ADD10C,0.100000*%
%ADD11C,6.400000*%
%ADD12O,1.500000X1.500000*%
%ADD13C,2.800000*%
%ADD14C,3.800000*%
%ADD15C,1.300000*%
%ADD16R,1.700000X1.700000*%
%ADD17O,1.700000X1.700000*%
%ADD18C,0.600000*%
%ADD19C,0.250000*%
%ADD20C,0.450000*%
%ADD21C,0.600000*%
%ADD22C,0.400000*%
G04 APERTURE END LIST*
D10*
D11*
X84000000Y-24000000D03*
X116000000Y-24000000D03*
X116000000Y-96000000D03*
D12*
X92700000Y-63200000D03*
X106800000Y-63200000D03*
D13*
X100000000Y-72200000D03*
D14*
X100000000Y-80650000D03*
D15*
X93020000Y-90700000D03*
X94820000Y-90450000D03*
X96620000Y-75700000D03*
X106980000Y-90700000D03*
X105180000Y-90450000D03*
X106980000Y-88650000D03*
X106980000Y-86600000D03*
X106980000Y-84550000D03*
X106980000Y-82500000D03*
X106980000Y-80400000D03*
X106980000Y-78300000D03*
X106980000Y-76100000D03*
X106980000Y-73820000D03*
X106980000Y-71540000D03*
X106980000Y-69260000D03*
X105180000Y-88400000D03*
X105180000Y-86350000D03*
X105180000Y-84300000D03*
X105180000Y-82250000D03*
X105180000Y-80200000D03*
X105180000Y-78100000D03*
X105180000Y-75900000D03*
X105180000Y-73620000D03*
X105180000Y-71340000D03*
X105180000Y-69060000D03*
X103380000Y-75700000D03*
X103380000Y-73420000D03*
X103380000Y-71140000D03*
X103380000Y-68860000D03*
X96620000Y-73620000D03*
X96620000Y-71340000D03*
X96620000Y-69060000D03*
X93020000Y-88650000D03*
X93020000Y-86600000D03*
X93020000Y-84550000D03*
X93020000Y-82500000D03*
X93020000Y-80400000D03*
X93020000Y-78300000D03*
X93020000Y-76100000D03*
X93020000Y-73820000D03*
X93020000Y-71540000D03*
X93020000Y-69260000D03*
X94820000Y-88400000D03*
X94820000Y-86350000D03*
X94820000Y-84300000D03*
X94820000Y-82250000D03*
X94820000Y-80200000D03*
X94820000Y-78100000D03*
X94820000Y-75900000D03*
X94820000Y-73620000D03*
X94820000Y-71340000D03*
X94820000Y-69060000D03*
D13*
X100000000Y-85700000D03*
D12*
X93900000Y-93600000D03*
D11*
X84000000Y-96000000D03*
D16*
X118000000Y-50000000D03*
D17*
X118000000Y-52540000D03*
X118000000Y-55080000D03*
X118000000Y-57620000D03*
X118000000Y-60160000D03*
X118000000Y-62700000D03*
X118000000Y-65240000D03*
X118000000Y-67780000D03*
X118000000Y-70320000D03*
X118000000Y-72860000D03*
X118000000Y-75400000D03*
X118000000Y-77940000D03*
X118000000Y-80480000D03*
X118000000Y-83020000D03*
X118000000Y-85560000D03*
X118000000Y-88100000D03*
D16*
X82000000Y-50000000D03*
D17*
X82000000Y-52540000D03*
X82000000Y-55080000D03*
X82000000Y-57620000D03*
X82000000Y-60160000D03*
X82000000Y-62700000D03*
X82000000Y-65240000D03*
X82000000Y-67780000D03*
X82000000Y-70320000D03*
X82000000Y-72860000D03*
X82000000Y-75400000D03*
X82000000Y-77940000D03*
X82000000Y-80480000D03*
X82000000Y-83020000D03*
X82000000Y-85560000D03*
X82000000Y-88100000D03*
D18*
X98850000Y-46175000D03*
X98400000Y-39600000D03*
X97600000Y-34400000D03*
X99025000Y-30375000D03*
X96875000Y-30925000D03*
X85525000Y-33700000D03*
X85525000Y-43675000D03*
X85300000Y-53600000D03*
X111400000Y-40400000D03*
X113600000Y-39600000D03*
X111900000Y-83400000D03*
X112300000Y-81300000D03*
X88900000Y-85500000D03*
X87275000Y-83175000D03*
X110850000Y-78000000D03*
X109184981Y-78699989D03*
X89325000Y-86525000D03*
X85204449Y-86904449D03*
X107200000Y-43600000D03*
X114100000Y-40800000D03*
X97400000Y-68400000D03*
X106500000Y-81925000D03*
X95725000Y-81750000D03*
X93525000Y-74300000D03*
X103200000Y-76600000D03*
X103400000Y-67200018D03*
X107200000Y-42000000D03*
X87825000Y-60475000D03*
X93975000Y-89625000D03*
X96225000Y-76425000D03*
X105875000Y-89800000D03*
X99575000Y-44475000D03*
X109249957Y-89269741D03*
X107825000Y-89075000D03*
X106300000Y-85220000D03*
X99575000Y-43175000D03*
X109600000Y-90175000D03*
X95460000Y-35030000D03*
X94190000Y-35030000D03*
X94275000Y-37850000D03*
X93125000Y-37850000D03*
X99575002Y-41825000D03*
X104550000Y-85750000D03*
X94160000Y-50220000D03*
X101275000Y-76025000D03*
X101300000Y-68525000D03*
X105800000Y-83000000D03*
X94175000Y-44375000D03*
X114624999Y-62675000D03*
X115675000Y-35175000D03*
X103350000Y-81475000D03*
X102425000Y-77425000D03*
X105700000Y-76850000D03*
X104700000Y-65600000D03*
X105625000Y-72950000D03*
X92050000Y-37875000D03*
X105700000Y-70025000D03*
X104050000Y-74400000D03*
X104050000Y-72050000D03*
X95525000Y-44350000D03*
X90350000Y-50199998D03*
X97225000Y-72875000D03*
X99075000Y-69200000D03*
X86950000Y-51175000D03*
X92600000Y-83900000D03*
X90300000Y-60700000D03*
X92563393Y-80649999D03*
X91475000Y-60775000D03*
X92950000Y-57575000D03*
X90100000Y-76725000D03*
X92550000Y-76725000D03*
X90300000Y-79375000D03*
X86525000Y-50150000D03*
X95150000Y-67400000D03*
X93625000Y-70000000D03*
X94200000Y-87725000D03*
X86400000Y-60525000D03*
X91300000Y-90150000D03*
X95500000Y-84400000D03*
X92975000Y-50200000D03*
X114825000Y-60775000D03*
X117675000Y-35275000D03*
X96825000Y-80825000D03*
X96825000Y-78425000D03*
X94200000Y-60725000D03*
X91075000Y-70525000D03*
X94250000Y-75350000D03*
X91610000Y-50190000D03*
X99350000Y-68075002D03*
X95500000Y-72900000D03*
X89900000Y-80100000D03*
X92810000Y-26730000D03*
X95200000Y-26800000D03*
X100800000Y-26800000D03*
X87820000Y-44790000D03*
X106325000Y-22650000D03*
X87775000Y-32650000D03*
X87825000Y-52925000D03*
X86300000Y-85625000D03*
X115600000Y-84700000D03*
X112674965Y-84855188D03*
X84400000Y-84600000D03*
X92925000Y-44175000D03*
X92925000Y-30550000D03*
X89450000Y-44940000D03*
X92250000Y-29550000D03*
X93800000Y-26075021D03*
X89175000Y-52975000D03*
X115100000Y-40099996D03*
X110200000Y-43800000D03*
X100300000Y-24999994D03*
X83940000Y-45790000D03*
X104100000Y-23000000D03*
X83590000Y-46800000D03*
X108700000Y-23000000D03*
X109400000Y-52200000D03*
X103400000Y-46200000D03*
X112425000Y-50125000D03*
X84500000Y-80000000D03*
X84399992Y-81300000D03*
X84200000Y-83200000D03*
X113200000Y-82600000D03*
X113200000Y-81400000D03*
X113260000Y-80050000D03*
D19*
X98850000Y-45750736D02*
X98850000Y-46175000D01*
X98850000Y-40050000D02*
X98850000Y-45750736D01*
X98400000Y-39600000D02*
X98850000Y-40050000D01*
X97600000Y-35275000D02*
X98400000Y-36075000D01*
X98400000Y-36075000D02*
X98400000Y-39600000D01*
X97600000Y-34400000D02*
X97600000Y-35275000D01*
X96875000Y-30925000D02*
X98475000Y-30925000D01*
X98475000Y-30925000D02*
X99025000Y-30375000D01*
X85525000Y-33700000D02*
X85525000Y-43675000D01*
X85300000Y-53600000D02*
X85300000Y-43900000D01*
X85300000Y-43900000D02*
X85525000Y-43675000D01*
X113600000Y-39600000D02*
X112800000Y-40400000D01*
X112800000Y-40400000D02*
X111400000Y-40400000D01*
X112300000Y-83000000D02*
X112199999Y-83100001D01*
X112300000Y-81300000D02*
X112300000Y-83000000D01*
X112199999Y-83100001D02*
X111900000Y-83400000D01*
X87275000Y-83875000D02*
X88600001Y-85200001D01*
X87275000Y-83175000D02*
X87275000Y-83875000D01*
X88600001Y-85200001D02*
X88900000Y-85500000D01*
D20*
X110550001Y-78299999D02*
X110850000Y-78000000D01*
X110150011Y-78699989D02*
X110550001Y-78299999D01*
X109184981Y-78699989D02*
X110150011Y-78699989D01*
D21*
X85583899Y-86525000D02*
X85504448Y-86604450D01*
X89325000Y-86525000D02*
X85583899Y-86525000D01*
X85504448Y-86604450D02*
X85204449Y-86904449D01*
D22*
X108500000Y-86600000D02*
X108500000Y-83000000D01*
X108500000Y-83000000D02*
X108000000Y-82500000D01*
X108000000Y-82500000D02*
X106980000Y-82500000D01*
X106980000Y-86600000D02*
X108500000Y-86600000D01*
X108500000Y-86600000D02*
X108549956Y-86649956D01*
X106980000Y-90700000D02*
X107899238Y-90700000D01*
X107899238Y-90700000D02*
X108549956Y-90049282D01*
X108549956Y-90049282D02*
X108549956Y-86649956D01*
X106980000Y-86600000D02*
X107600000Y-86600000D01*
D19*
X107200000Y-42000000D02*
X107200000Y-43600000D01*
X113200000Y-41700000D02*
X107499999Y-41700001D01*
X107499999Y-41700001D02*
X107200000Y-42000000D01*
X114100000Y-40800000D02*
X113200000Y-41700000D01*
D21*
X97280000Y-68400000D02*
X96620000Y-69060000D01*
X97400000Y-68400000D02*
X97280000Y-68400000D01*
D22*
X96299989Y-84870011D02*
X95469999Y-85700001D01*
X96299989Y-83729989D02*
X96299989Y-84870011D01*
X94820000Y-82250000D02*
X96299989Y-83729989D01*
X95469999Y-85700001D02*
X94820000Y-86350000D01*
D21*
X106799999Y-82224999D02*
X106500000Y-81925000D01*
X106980000Y-82405000D02*
X106799999Y-82224999D01*
X106980000Y-82500000D02*
X106980000Y-82405000D01*
X95725000Y-81750000D02*
X95320000Y-81750000D01*
X95320000Y-81750000D02*
X94820000Y-82250000D01*
X93020000Y-73820000D02*
X93045000Y-73820000D01*
X93045000Y-73820000D02*
X93525000Y-74300000D01*
X103380000Y-75700000D02*
X103380000Y-76420000D01*
X103380000Y-76420000D02*
X103200000Y-76600000D01*
D22*
X103400000Y-67200018D02*
X103400018Y-67200000D01*
X103400018Y-67200000D02*
X106000000Y-67200000D01*
X106000000Y-67200000D02*
X107000000Y-68200000D01*
X107000000Y-68200000D02*
X107000000Y-69240000D01*
X107000000Y-69240000D02*
X106980000Y-69260000D01*
D19*
X106980000Y-82500000D02*
X106980000Y-82180000D01*
X106980000Y-82180000D02*
X106899999Y-82099999D01*
D22*
X93020000Y-86600000D02*
X94570000Y-86600000D01*
X94570000Y-86600000D02*
X94820000Y-86350000D01*
X93020000Y-88650000D02*
X93020000Y-86600000D01*
X106980000Y-69260000D02*
X106980000Y-71540000D01*
X105180000Y-71340000D02*
X106780000Y-71340000D01*
D21*
X106780000Y-71340000D02*
X106980000Y-71540000D01*
D22*
X96620000Y-69060000D02*
X94820000Y-70860000D01*
D19*
X92370001Y-90050001D02*
X93020000Y-90700000D01*
X90500009Y-83263599D02*
X90500009Y-88180009D01*
X87950011Y-80713601D02*
X90500009Y-83263599D01*
X87825000Y-60475000D02*
X89050011Y-61700011D01*
X87950011Y-75961399D02*
X87950011Y-80713601D01*
X89050011Y-74861400D02*
X87950011Y-75961399D01*
X90500009Y-88180009D02*
X92370001Y-90050001D01*
X89050011Y-61700011D02*
X89050011Y-74861400D01*
X93975000Y-89625000D02*
X93995000Y-89625000D01*
X93995000Y-89625000D02*
X94820000Y-90450000D01*
X96225000Y-76425000D02*
X96225000Y-76095000D01*
X96225000Y-76095000D02*
X96620000Y-75700000D01*
X105875000Y-89800000D02*
X105830000Y-89800000D01*
X105830000Y-89800000D02*
X105180000Y-90450000D01*
X109249957Y-89269741D02*
X109249957Y-88845477D01*
X109249957Y-88845477D02*
X109400000Y-88695434D01*
X109400000Y-88695434D02*
X109400000Y-80375002D01*
X109400000Y-80375002D02*
X111574978Y-78200024D01*
X111574978Y-78200024D02*
X111574978Y-62597799D01*
X111574978Y-62597799D02*
X100124244Y-51147066D01*
X100124244Y-51147066D02*
X100124244Y-45024244D01*
X100124244Y-45024244D02*
X99874999Y-44774999D01*
X99874999Y-44774999D02*
X99575000Y-44475000D01*
X106980000Y-88650000D02*
X107400000Y-88650000D01*
X107400000Y-88650000D02*
X107825000Y-89075000D01*
X106980000Y-84550000D02*
X106310000Y-85220000D01*
X106310000Y-85220000D02*
X106300000Y-85220000D01*
X112024989Y-78386424D02*
X109899999Y-80511414D01*
X99575000Y-43175000D02*
X100574255Y-44174255D01*
X100574255Y-44174255D02*
X100574255Y-50960666D01*
X109899999Y-80511414D02*
X109899999Y-89875001D01*
X100574255Y-50960666D02*
X112024989Y-62411399D01*
X109899999Y-89875001D02*
X109600000Y-90175000D01*
X112024989Y-62411399D02*
X112024989Y-78386424D01*
X106980000Y-80400000D02*
X108350000Y-79030000D01*
X108350000Y-79030000D02*
X108350000Y-78150000D01*
X108350000Y-78150000D02*
X109725000Y-76775000D01*
X109725000Y-76775000D02*
X109725000Y-61384233D01*
X99674233Y-49658465D02*
X98150000Y-48134232D01*
X98150000Y-48134232D02*
X98150000Y-42029357D01*
X109725000Y-61384233D02*
X99674233Y-51333466D01*
X99674233Y-51333466D02*
X99674233Y-49658465D01*
X98150000Y-42029357D02*
X95500000Y-39379357D01*
X95500000Y-39379357D02*
X95500000Y-35310000D01*
X95490000Y-35060000D02*
X95460000Y-35030000D01*
X95500000Y-35310000D02*
X95490000Y-35300000D01*
X95490000Y-35300000D02*
X95490000Y-35060000D01*
X94489999Y-35329999D02*
X94190000Y-35030000D01*
X95049989Y-35889989D02*
X94489999Y-35329999D01*
X97699989Y-42215757D02*
X95049989Y-39565757D01*
X97699989Y-48320632D02*
X97699989Y-42215757D01*
X106980000Y-78300000D02*
X109274989Y-76005011D01*
X99224222Y-49844865D02*
X97699989Y-48320632D01*
X109274989Y-61570633D02*
X99224222Y-51519866D01*
X109274989Y-76005011D02*
X109274989Y-61570633D01*
X99224222Y-51519866D02*
X99224222Y-49844865D01*
X95049989Y-39565757D02*
X95049989Y-35889989D01*
X108824978Y-61757033D02*
X98774211Y-51706266D01*
X97249978Y-42402156D02*
X94275000Y-39427178D01*
X97249978Y-48507032D02*
X97249978Y-42402156D01*
X98774211Y-51706266D02*
X98774211Y-50031265D01*
X108824978Y-74255022D02*
X108824978Y-61757033D01*
X94275000Y-38274264D02*
X94275000Y-37850000D01*
X94275000Y-39427178D02*
X94275000Y-38274264D01*
X98774211Y-50031265D02*
X97249978Y-48507032D01*
X106980000Y-76100000D02*
X108824978Y-74255022D01*
X107629999Y-73170001D02*
X106980000Y-73820000D01*
X108374967Y-61943433D02*
X108374967Y-72425033D01*
X98324200Y-50217665D02*
X98324200Y-51892666D01*
X98324200Y-51892666D02*
X108374967Y-61943433D01*
X96799967Y-48693432D02*
X98324200Y-50217665D01*
X96799967Y-42588556D02*
X96799967Y-48693432D01*
X93125000Y-37850000D02*
X93125000Y-38913589D01*
X93125000Y-38913589D02*
X96799967Y-42588556D01*
X108374967Y-72425033D02*
X107629999Y-73170001D01*
X99575002Y-41825000D02*
X100515000Y-41825000D01*
X112475000Y-53785000D02*
X112475000Y-78572824D01*
X103825000Y-91725000D02*
X103825000Y-89755000D01*
X100515000Y-41825000D02*
X112475000Y-53785000D01*
X110374977Y-90545793D02*
X108045770Y-92875000D01*
X112475000Y-78572824D02*
X110374977Y-80672847D01*
X110374977Y-80672847D02*
X110374977Y-90545793D01*
X104975000Y-92875000D02*
X103825000Y-91725000D01*
X108045770Y-92875000D02*
X104975000Y-92875000D01*
X103825000Y-89755000D02*
X104530001Y-89049999D01*
X104530001Y-89049999D02*
X105180000Y-88400000D01*
X104849999Y-86049999D02*
X104550000Y-85750000D01*
X105180000Y-86350000D02*
X105150000Y-86350000D01*
X105150000Y-86350000D02*
X104849999Y-86049999D01*
X94160000Y-50220000D02*
X94160000Y-50644264D01*
X94170000Y-51500000D02*
X94530000Y-51860000D01*
X94530000Y-51860000D02*
X95680644Y-51860000D01*
X94160000Y-50644264D02*
X94170000Y-50654264D01*
X94170000Y-50654264D02*
X94170000Y-51500000D01*
X95680644Y-51860000D02*
X100524978Y-56704334D01*
X100524978Y-56704334D02*
X100524978Y-67749978D01*
X100524978Y-67749978D02*
X101300000Y-68525000D01*
X105180000Y-84300000D02*
X104050000Y-83170000D01*
X104050000Y-83170000D02*
X104050000Y-80636415D01*
X104050000Y-80636415D02*
X101275000Y-77861415D01*
X101275000Y-76888611D02*
X101275000Y-76025000D01*
X101275000Y-77861415D02*
X101275000Y-76888611D01*
X105800000Y-83000000D02*
X105800000Y-82870000D01*
X105800000Y-82870000D02*
X105180000Y-82250000D01*
X94175000Y-44799264D02*
X94175000Y-44375000D01*
X94175000Y-47977698D02*
X94175000Y-44799264D01*
X100974989Y-56452687D02*
X96974167Y-52451866D01*
X101774998Y-77714236D02*
X101774998Y-77124998D01*
X102249999Y-68336410D02*
X100974989Y-67061400D01*
X96974167Y-52451866D02*
X96974167Y-50776865D01*
X96974167Y-50776865D02*
X94175000Y-47977698D01*
X102249999Y-76649997D02*
X102249999Y-68336410D01*
X105180000Y-80200000D02*
X104260762Y-80200000D01*
X100974989Y-67061400D02*
X100974989Y-56452687D01*
X101774998Y-77124998D02*
X102249999Y-76649997D01*
X104260762Y-80200000D02*
X101774998Y-77714236D01*
X103350000Y-91886411D02*
X104788600Y-93325011D01*
X113900000Y-63399999D02*
X114325000Y-62974999D01*
X110824988Y-90732192D02*
X110824988Y-80859247D01*
X110824988Y-80859247D02*
X113900000Y-77784235D01*
X103350000Y-81475000D02*
X103350000Y-91886411D01*
X108232169Y-93325011D02*
X110824988Y-90732192D01*
X113900000Y-77784235D02*
X113900000Y-63399999D01*
X104788600Y-93325011D02*
X108232169Y-93325011D01*
X114325000Y-62974999D02*
X114624999Y-62675000D01*
X116025000Y-54700000D02*
X116405000Y-55080000D01*
X116405000Y-55080000D02*
X118000000Y-55080000D01*
X116025000Y-35525000D02*
X116025000Y-54700000D01*
X115675000Y-35175000D02*
X116025000Y-35525000D01*
X105180000Y-78100000D02*
X103100000Y-78100000D01*
X103100000Y-78100000D02*
X102425000Y-77425000D01*
X105700000Y-76850000D02*
X105700000Y-76420000D01*
X105700000Y-76420000D02*
X105180000Y-75900000D01*
X97874189Y-52079066D02*
X97874189Y-50404065D01*
X97874189Y-50404065D02*
X96349956Y-48879832D01*
X96349956Y-42774956D02*
X92050000Y-38475000D01*
X104700000Y-58904876D02*
X97874189Y-52079066D01*
X92050000Y-38475000D02*
X92050000Y-38299264D01*
X96349956Y-48879832D02*
X96349956Y-42774956D01*
X104700000Y-65600000D02*
X104700000Y-58904876D01*
X92050000Y-38299264D02*
X92050000Y-37875000D01*
X105180000Y-73620000D02*
X105180000Y-73395000D01*
X105180000Y-73395000D02*
X105625000Y-72950000D01*
X105700000Y-70025000D02*
X105700000Y-69580000D01*
X105700000Y-69580000D02*
X105180000Y-69060000D01*
X104050000Y-74400000D02*
X104050000Y-74090000D01*
X104050000Y-74090000D02*
X103380000Y-73420000D01*
X104050000Y-72050000D02*
X104050000Y-71810000D01*
X104050000Y-71810000D02*
X103380000Y-71140000D01*
X102730001Y-68210001D02*
X103380000Y-68860000D01*
X97424178Y-52265466D02*
X101425000Y-56266287D01*
X95525000Y-48691287D02*
X97424178Y-50590465D01*
X95525000Y-44350000D02*
X95525000Y-48691287D01*
X102730001Y-68180001D02*
X102730001Y-68210001D01*
X101425000Y-66875000D02*
X102730001Y-68180001D01*
X97424178Y-50590465D02*
X97424178Y-52265466D01*
X101425000Y-56266287D02*
X101425000Y-66875000D01*
X90350000Y-51450000D02*
X90350000Y-50624262D01*
X90350000Y-50624262D02*
X90350000Y-50199998D01*
X95136389Y-53224978D02*
X92124978Y-53224978D01*
X98675000Y-56763589D02*
X95136389Y-53224978D01*
X98675000Y-68800000D02*
X98675000Y-56763589D01*
X99075000Y-69200000D02*
X98675000Y-68800000D01*
X92124978Y-53224978D02*
X90350000Y-51450000D01*
X97225000Y-72875000D02*
X97225000Y-73015000D01*
X97225000Y-73015000D02*
X96620000Y-73620000D01*
X99036388Y-69161388D02*
X99075000Y-69200000D01*
X96620000Y-71340000D02*
X96620000Y-70680000D01*
X98224988Y-69075012D02*
X98224988Y-56949988D01*
X96620000Y-70680000D02*
X98224988Y-69075012D01*
X98224988Y-56949988D02*
X94949989Y-53674989D01*
X94949989Y-53674989D02*
X86950000Y-53674989D01*
X86950000Y-53674989D02*
X86950000Y-51175000D01*
X93020000Y-84320000D02*
X92899999Y-84199999D01*
X92899999Y-84199999D02*
X92600000Y-83900000D01*
X93020000Y-84550000D02*
X93020000Y-84320000D01*
X89500022Y-61499978D02*
X90000001Y-60999999D01*
X89500022Y-75047800D02*
X89500022Y-61499978D01*
X88400022Y-80525022D02*
X88400022Y-76147799D01*
X90375000Y-82500000D02*
X88400022Y-80525022D01*
X93020000Y-82500000D02*
X90375000Y-82500000D01*
X88400022Y-76147799D02*
X89500022Y-75047800D01*
X90000001Y-60999999D02*
X90300000Y-60700000D01*
X92563393Y-80649999D02*
X92770001Y-80649999D01*
X92770001Y-80649999D02*
X93020000Y-80400000D01*
X93020000Y-78300000D02*
X90495000Y-80825000D01*
X91175001Y-61074999D02*
X91475000Y-60775000D01*
X89950033Y-62299967D02*
X91175001Y-61074999D01*
X90495000Y-80825000D02*
X89475000Y-80825000D01*
X89475000Y-80825000D02*
X88850033Y-80200033D01*
X89950033Y-75234200D02*
X89950033Y-62299967D01*
X88850033Y-76334199D02*
X89950033Y-75234200D01*
X88850033Y-80200033D02*
X88850033Y-76334199D01*
X92950000Y-57999264D02*
X92950000Y-57575000D01*
X92950000Y-61114915D02*
X92950000Y-57999264D01*
X90400044Y-62625692D02*
X91475735Y-61550001D01*
X90400044Y-76424956D02*
X90400044Y-62625692D01*
X90100000Y-76725000D02*
X90400044Y-76424956D01*
X91475735Y-61550001D02*
X92514914Y-61550001D01*
X92514914Y-61550001D02*
X92950000Y-61114915D01*
X93020000Y-76100000D02*
X93020000Y-76255000D01*
X93020000Y-76255000D02*
X92550000Y-76725000D01*
X93020000Y-71540000D02*
X91750000Y-72810000D01*
X91750000Y-72810000D02*
X91750000Y-77500736D01*
X91750000Y-77500736D02*
X90300000Y-78950736D01*
X90300000Y-78950736D02*
X90300000Y-79375000D01*
X86763590Y-54125000D02*
X86225001Y-53586411D01*
X95150000Y-67400000D02*
X95150000Y-54525000D01*
X94750000Y-54125000D02*
X86763590Y-54125000D01*
X95150000Y-54525000D02*
X94750000Y-54125000D01*
X86225001Y-53586411D02*
X86225001Y-50449999D01*
X86225001Y-50449999D02*
X86525000Y-50150000D01*
X93020000Y-69260000D02*
X93020000Y-69395000D01*
X93020000Y-69395000D02*
X93625000Y-70000000D01*
X94820000Y-88400000D02*
X94820000Y-88345000D01*
X94820000Y-88345000D02*
X94200000Y-87725000D01*
X90025000Y-88575000D02*
X91000001Y-89550001D01*
X88600000Y-62825000D02*
X88600000Y-74675000D01*
X91000001Y-89850001D02*
X91300000Y-90150000D01*
X86400000Y-60525000D02*
X86400000Y-60625000D01*
X86400000Y-60625000D02*
X88600000Y-62825000D01*
X88600000Y-74675000D02*
X87500000Y-75775000D01*
X87500000Y-75775000D02*
X87500000Y-80900000D01*
X87500000Y-80900000D02*
X90025000Y-83425000D01*
X90025000Y-83425000D02*
X90025000Y-88575000D01*
X91000001Y-89550001D02*
X91000001Y-89850001D01*
X94820000Y-84300000D02*
X95400000Y-84300000D01*
X95400000Y-84300000D02*
X95500000Y-84400000D01*
X94820000Y-80200000D02*
X95975004Y-80200000D01*
X95509189Y-52324956D02*
X93249956Y-52324956D01*
X95975004Y-80200000D02*
X97900000Y-78275004D01*
X97900000Y-78275004D02*
X97900000Y-70325000D01*
X97900000Y-70325000D02*
X98300000Y-69925000D01*
X100074967Y-69375033D02*
X100074967Y-56890734D01*
X98300000Y-69925000D02*
X99525000Y-69925000D01*
X99525000Y-69925000D02*
X100074967Y-69375033D01*
X100074967Y-56890734D02*
X95509189Y-52324956D01*
X93249956Y-52324956D02*
X92975000Y-52050000D01*
X92975000Y-52050000D02*
X92975000Y-50200000D01*
X114350011Y-64529989D02*
X115375002Y-63504998D01*
X96825000Y-87800000D02*
X102800022Y-93775022D01*
X114350011Y-77970635D02*
X114350011Y-64529989D01*
X108418568Y-93775022D02*
X111274999Y-90918591D01*
X115124999Y-61074999D02*
X114825000Y-60775000D01*
X115375002Y-63504998D02*
X115375002Y-61325002D01*
X96825000Y-80825000D02*
X96825000Y-87800000D01*
X102800022Y-93775022D02*
X108418568Y-93775022D01*
X111274999Y-81045647D02*
X114350011Y-77970635D01*
X115375002Y-61325002D02*
X115124999Y-61074999D01*
X111274999Y-90918591D02*
X111274999Y-81045647D01*
X117675000Y-35275000D02*
X116625000Y-36325000D01*
X116797919Y-52540000D02*
X118000000Y-52540000D01*
X116625000Y-36325000D02*
X116625000Y-52367081D01*
X116625000Y-52367081D02*
X116797919Y-52540000D01*
X94820000Y-78100000D02*
X96500000Y-78100000D01*
X96500000Y-78100000D02*
X96825000Y-78425000D01*
X92550000Y-65750000D02*
X94200000Y-64100000D01*
X94200000Y-64100000D02*
X94200000Y-60725000D01*
X91075000Y-70525000D02*
X91075000Y-65750000D01*
X91075000Y-65750000D02*
X92550000Y-65750000D01*
X94820000Y-75900000D02*
X94800000Y-75900000D01*
X94800000Y-75900000D02*
X94250000Y-75350000D01*
X91610000Y-50614264D02*
X91610000Y-50190000D01*
X91610000Y-51685000D02*
X91610000Y-50614264D01*
X92699967Y-52774967D02*
X91610000Y-51685000D01*
X95322789Y-52774967D02*
X92699967Y-52774967D01*
X99350000Y-56802178D02*
X95322789Y-52774967D01*
X99350000Y-68075002D02*
X99350000Y-56802178D01*
X95500000Y-72940000D02*
X95500000Y-72900000D01*
X94820000Y-73620000D02*
X95500000Y-72940000D01*
X92375000Y-67975000D02*
X93735000Y-67975000D01*
X91700001Y-70825001D02*
X91700001Y-68649999D01*
X91700001Y-68649999D02*
X92375000Y-67975000D01*
X89600001Y-78499999D02*
X91250000Y-76850000D01*
X91250000Y-71275002D02*
X91700001Y-70825001D01*
X91250000Y-76850000D02*
X91250000Y-71275002D01*
X89900000Y-80100000D02*
X89600001Y-79800001D01*
X93735000Y-67975000D02*
X94170001Y-68410001D01*
X89600001Y-79800001D02*
X89600001Y-78499999D01*
X94170001Y-68410001D02*
X94820000Y-69060000D01*
X92880000Y-26800000D02*
X92810000Y-26730000D01*
X95200000Y-26800000D02*
X92880000Y-26800000D01*
X100800000Y-26800000D02*
X95200000Y-26800000D01*
X91234389Y-26379200D02*
X91234389Y-28540611D01*
X87775000Y-32225736D02*
X87775000Y-32650000D01*
X92163578Y-25450011D02*
X91234389Y-26379200D01*
X99300011Y-25450011D02*
X92163578Y-25450011D01*
X106325000Y-22650000D02*
X103045000Y-25930000D01*
X87775000Y-32000000D02*
X87775000Y-32225736D01*
X99780000Y-25930000D02*
X99300011Y-25450011D01*
X91234389Y-28540611D02*
X87775000Y-32000000D01*
X103045000Y-25930000D02*
X99780000Y-25930000D01*
X87775000Y-32650000D02*
X87775000Y-44745000D01*
X87825000Y-52925000D02*
X87825000Y-44795000D01*
X87775000Y-44745000D02*
X87820000Y-44790000D01*
X87825000Y-44795000D02*
X87820000Y-44790000D01*
X112000011Y-91159989D02*
X107485000Y-95675000D01*
X84775000Y-85625000D02*
X85875736Y-85625000D01*
X107485000Y-95675000D02*
X92586410Y-95675000D01*
X115600000Y-84700000D02*
X114900000Y-84000000D01*
X114900000Y-84000000D02*
X112500000Y-84000000D01*
X112500000Y-84000000D02*
X112000011Y-84499989D01*
X112000011Y-84499989D02*
X112000011Y-91159989D01*
X92586410Y-95675000D02*
X84250000Y-87338590D01*
X84250000Y-87338590D02*
X84250000Y-86150000D01*
X84250000Y-86150000D02*
X84775000Y-85625000D01*
X85875736Y-85625000D02*
X86300000Y-85625000D01*
X117130001Y-83869999D02*
X116300000Y-84700000D01*
X116300000Y-84700000D02*
X115600000Y-84700000D01*
X118000000Y-83020000D02*
X117150001Y-83869999D01*
X117150001Y-83869999D02*
X117130001Y-83869999D01*
X83580000Y-84600000D02*
X83840000Y-84600000D01*
X83840000Y-84600000D02*
X84400000Y-84600000D01*
X83799989Y-85200011D02*
X83799989Y-84640011D01*
X83799989Y-84640011D02*
X83840000Y-84600000D01*
X112674965Y-85279452D02*
X112674965Y-84855188D01*
X107671400Y-96125011D02*
X112674965Y-91121446D01*
X83799989Y-87524990D02*
X92400010Y-96125011D01*
X83799989Y-85200011D02*
X83799989Y-87524990D01*
X112674965Y-91121446D02*
X112674965Y-85279452D01*
X92400010Y-96125011D02*
X107671400Y-96125011D01*
X82000000Y-83020000D02*
X83580000Y-84600000D01*
X92925000Y-30550000D02*
X91490000Y-30550000D01*
X91490000Y-30550000D02*
X89820000Y-32220000D01*
X89820000Y-32220000D02*
X89820000Y-42850000D01*
X89820000Y-42850000D02*
X91145000Y-44175000D01*
X91145000Y-44175000D02*
X92925000Y-44175000D01*
X89150001Y-44640001D02*
X89450000Y-44940000D01*
X89080001Y-32295735D02*
X89080001Y-44570001D01*
X92250000Y-29550000D02*
X91825736Y-29550000D01*
X91825736Y-29550000D02*
X89080001Y-32295735D01*
X89080001Y-44570001D02*
X89150001Y-44640001D01*
X93800000Y-26075021D02*
X92174979Y-26075021D01*
X92174979Y-26075021D02*
X91700000Y-26550000D01*
X91700000Y-26550000D02*
X91700000Y-28874998D01*
X91700000Y-28874998D02*
X88574998Y-32000000D01*
X88574998Y-32000000D02*
X88574998Y-52374998D01*
X88574998Y-52374998D02*
X88875001Y-52675001D01*
X88875001Y-52675001D02*
X89175000Y-52975000D01*
X115000000Y-43000000D02*
X115470011Y-43470011D01*
X115470011Y-43470011D02*
X115470011Y-55090011D01*
X115470011Y-55090011D02*
X117150001Y-56770001D01*
X117150001Y-56770001D02*
X118000000Y-57620000D01*
X115100000Y-40524260D02*
X115100000Y-40099996D01*
X115100000Y-42900000D02*
X115100000Y-40524260D01*
X115000000Y-43000000D02*
X115100000Y-42900000D01*
X114200000Y-43800000D02*
X115000000Y-43000000D01*
X114000000Y-43800000D02*
X114200000Y-43800000D01*
X110200000Y-43800000D02*
X114000000Y-43800000D01*
X91977184Y-24999994D02*
X90784378Y-26192800D01*
X83100000Y-50000000D02*
X82000000Y-50000000D01*
X84650000Y-33370000D02*
X84650000Y-48450000D01*
X85150000Y-32870000D02*
X84650000Y-33370000D01*
X86130000Y-32870000D02*
X85150000Y-32870000D01*
X90784378Y-28215622D02*
X86130000Y-32870000D01*
X90784378Y-26192800D02*
X90784378Y-28215622D01*
X100300000Y-24999994D02*
X91977184Y-24999994D01*
X84650000Y-48450000D02*
X83100000Y-50000000D01*
X104100000Y-23000000D02*
X102860000Y-24240000D01*
X102860000Y-24240000D02*
X92100767Y-24240000D01*
X92100767Y-24240000D02*
X90334367Y-26006400D01*
X90334367Y-27865633D02*
X85800000Y-32400000D01*
X90334367Y-26006400D02*
X90334367Y-27865633D01*
X85800000Y-32400000D02*
X84856410Y-32400000D01*
X84856410Y-32400000D02*
X83940000Y-33316410D01*
X83940000Y-33316410D02*
X83940000Y-45365736D01*
X83940000Y-45365736D02*
X83940000Y-45790000D01*
X83590000Y-46800000D02*
X83290001Y-46500001D01*
X107600000Y-21900000D02*
X108700000Y-23000000D01*
X83290001Y-46500001D02*
X83290001Y-33329999D01*
X89884356Y-27545644D02*
X89884356Y-25820000D01*
X102010000Y-23790000D02*
X103900000Y-21900000D01*
X83290001Y-33329999D02*
X84740000Y-31880000D01*
X103900000Y-21900000D02*
X107600000Y-21900000D01*
X84740000Y-31880000D02*
X85550000Y-31880000D01*
X85550000Y-31880000D02*
X89884356Y-27545644D01*
X89884356Y-25820000D02*
X91914356Y-23790000D01*
X91914356Y-23790000D02*
X102010000Y-23790000D01*
X103400000Y-46200000D02*
X109400000Y-52200000D01*
X112425000Y-50125000D02*
X113155000Y-50125000D01*
X113155000Y-50125000D02*
X115020000Y-51990000D01*
X115020000Y-51990000D02*
X115020000Y-58080000D01*
X115020000Y-58080000D02*
X117100000Y-60160000D01*
X117100000Y-60160000D02*
X118000000Y-60160000D01*
X84500000Y-79575736D02*
X84500000Y-80000000D01*
X84500000Y-70280000D02*
X84500000Y-79575736D01*
X82000000Y-67780000D02*
X84500000Y-70280000D01*
X82000000Y-72860000D02*
X83874998Y-74734998D01*
X83874998Y-74734998D02*
X83874998Y-80775006D01*
X83874998Y-80775006D02*
X84099993Y-81000001D01*
X84099993Y-81000001D02*
X84399992Y-81300000D01*
X82000000Y-77940000D02*
X83424987Y-79364987D01*
X83424987Y-79364987D02*
X83424987Y-82424987D01*
X83424987Y-82424987D02*
X83900001Y-82900001D01*
X83900001Y-82900001D02*
X84200000Y-83200000D01*
X113624264Y-82600000D02*
X113200000Y-82600000D01*
X113935864Y-82600000D02*
X113624264Y-82600000D01*
X116600000Y-79935864D02*
X113935864Y-82600000D01*
X116600000Y-76800000D02*
X116600000Y-79935864D01*
X118000000Y-75400000D02*
X116600000Y-76800000D01*
X118000000Y-70320000D02*
X116149990Y-72170010D01*
X116149990Y-72170010D02*
X116149990Y-79240010D01*
X113990000Y-81400000D02*
X113624264Y-81400000D01*
X116149990Y-79240010D02*
X113990000Y-81400000D01*
X113624264Y-81400000D02*
X113200000Y-81400000D01*
X113559999Y-79750001D02*
X113260000Y-80050000D01*
X115699979Y-77610021D02*
X113559999Y-79750001D01*
X115699979Y-67540021D02*
X115699979Y-77610021D01*
X118000000Y-65240000D02*
X115699979Y-67540021D01*
M02*
